<?xml version="1.0" encoding="UTF-8"?>
<svg id="Layer_2" data-name="Layer 2" xmlns="http://www.w3.org/2000/svg" viewBox="0 0 842.5 267.96">
  <defs>
    <style>
      .cls-1 {
        fill: #f8c617;
      }

      .cls-2 {
        fill: #19408f;
      }

      .cls-3 {
        fill: #13377b;
      }
    </style>
  </defs>
  <g id="Layer_1-2" data-name="Layer 1">
    <path class="cls-2" d="M378.32,92.5c0,1.15-1.04,1.72-3.12,1.72-7.81,0-19.66-.68-35.55-2.03-15.89-1.35-27.79-2.03-35.7-2.03-10,0-15.84,.36-17.5,1.09-3.86,1.77-5.78,6.77-5.78,15,0,9.9,2.5,15.52,7.5,16.87,2.08,.52,5.26,.78,9.53,.78,7.19,0,17.94-.39,32.27-1.17,14.32-.78,25.08-1.17,32.27-1.17,3.44,0,5.16,9.17,5.16,27.5,0,15.94-.57,25.21-1.72,27.81-.73,1.87-2.14,2.81-4.22,2.81,1.35,0-1.93-.36-9.84-1.09-11.15-1.04-28.02-1.56-50.63-1.56-7.29,0-11.41,.05-12.34,.16-5.31,.83-7.97,3.07-7.97,6.72,0,14.79,.62,31.83,1.87,51.1,1.04,17.4,1.56,25.16,1.56,23.28,0,2.71-3.28,4.27-9.84,4.69,1.77-.1-2.87-.16-13.91-.16-19.48,0-32.03-.68-37.66-2.03-3.02-.73-4.53-2.34-4.53-4.84,0-11.56,.39-28.93,1.17-52.11,.78-23.18,1.17-40.55,1.17-52.11,0-13.75-.63-31.04-1.88-51.88-1.87-32.19-2.87-49.48-2.97-51.88l-.16-1.87c-.11-2.6,1.46-3.91,4.69-3.91,7.71,0,19.35,.16,34.92,.47,15.57,.31,27.27,.47,35.08,.47,8.33,0,20.86-.63,37.58-1.87,16.72-1.25,29.24-1.88,37.58-1.88,5.21,0,8.13,2.14,8.75,6.41,0,4.48,.21,11.2,.63,20.16,.21,2.29,.88,6.72,2.03,13.28,1.04,5.73,1.56,10.16,1.56,13.28Z"/>
    <path class="cls-2" d="M567.4,171.9c0,6.74-.31,10.73-.93,11.97-.76,1.52-3.09,2.27-7.02,2.27h-4.12c-2.07-.07-3.81-.1-5.22-.1s-3.51-.07-6.29-.21c-2.79-.14-4.87-.2-6.25-.2-1.1,0-6.05-6.61-14.86-19.82-7.02-10.53-11.35-16.89-12.99-19.07-.42-.55-.66-.84-.73-.85-1,.8-3.64,4.33-7.95,10.59-1.96,2.86-4.26,6.28-6.92,10.26-8.12,12.18-12.87,18.47-14.24,18.89-.35,.1-.93,.18-1.73,.25-1.36,.1-3.36,.16-6.01,.16-2.03,0-3.92,0-5.65-.04-10.34-.18-15.51-.89-15.51-2.13,0-1.44-.09-3.51-.26-6.19-.06-.97-.11-1.84-.15-2.63-.07-1.4-.1-2.52-.1-3.36,0-8.53,.51-13.55,1.54-15.07,.07-.06,5.75-7.6,17.03-22.6,9.15-12.11,13.73-19.02,13.73-20.74,0-.55-.46-1.6-1.38-3.17-1.98-3.38-6.1-9.14-12.35-17.27-5.78-7.36-11.52-14.76-17.23-22.19-.62-.89-1-2.37-1.14-4.44-.07-1.44-.07-3.4,0-5.88,.21-2.96,.31-4.61,.31-4.95,0-1.38-.12-3.51-.36-6.4-.24-2.89-.36-5.03-.36-6.4s1.2-1.96,3.61-1.96c1.58,0,3.92,.1,7.02,.31,3.1,.2,5.4,.31,6.91,.31,1.38,0,3.41-.07,6.09-.21,2.69-.14,4.68-.21,5.99-.21,1.1,0,6.11,6.7,15.02,20.08,5.88,8.83,9.91,14.75,12.08,17.75,1.86-1.16,3.96-2.09,5.92-2.86,.14-.05,.27-.11,.41-.16,15.98-6.29,32.08-12.25,48.13-18.36,1.13-.43,2.21-1,3.36-1.54-8.07-5.67-23.33-2.45-40.83,8.65,.33-2.49,.94-4.82,1.78-7.04,7.28-11.01,11.5-16.52,12.65-16.52h24.56c2.41,0,3.62,.59,3.62,1.76v25.08c0,1.54-3.93,7.52-11.79,17.96-2.2,1.06-4.55,1.82-6.96,2.48-2.62,.72-3.66,1.98-3.93,4.75-.34,3.5-1.09,6.89-2.28,10.1-1.32,3.6-3.19,6.99-5.6,10.11-.3,.39-.6,.77-.9,1.16,1.36,2.59,5.89,8.99,13.6,19.18,11.01,14.52,16.75,22.12,17.24,22.81,.96,1.52,1.44,6.75,1.44,15.69Z"/>
    <path class="cls-2" d="M842.5,116.8c0,27.71-7.27,50.14-21.81,67.31-15.57,18.2-37.04,27.3-64.4,27.3-4.58,0-11.48-.26-20.69-.77-9.22-.52-16.12-.77-20.69-.77-4.92,0-7.38,2.12-7.38,6.35,0,5.27,.52,13.11,1.55,23.53,1.03,10.42,1.55,18.2,1.55,23.35,0,2.63-1.2,3.95-3.61,3.95-6.98,0-17.46-.2-31.42-.6-13.97-.4-24.44-.6-31.43-.6-3.32,0-4.98-1.66-4.98-4.98,0-12.71,.2-31.8,.6-57.27,.4-25.47,.6-44.56,.6-57.27,0-35.95-1.55-73.73-4.64-113.34l-.17-2.4c-.23-2.17,1.49-3.49,5.15-3.95,8.93-1.14,28.62-1.72,59.07-1.72,17.97,0,35.2,.23,51.69,.69,27.13,.8,49,9.33,65.6,25.59,16.94,16.72,25.41,38.58,25.41,65.6Zm-68.52,2.75c0-26.67-12.99-40.01-38.98-40.01-18.32,0-27.93,1.03-28.85,3.09-.8,1.49-1.2,14.71-1.2,39.67,0,3.55,.14,8.79,.43,15.71,.28,6.93,.43,12.17,.43,15.71,0,2.29,10.3,3.43,30.91,3.43,24.84,0,37.26-12.54,37.26-37.61Z"/>
    <g>
      <path class="cls-2" d="M433.46,190.46c-.07-4.3-.15-8.99-.25-14.06-.07-2.84-.12-5.78-.19-8.85-.4-19.66-.62-34.36-.62-44.15,0-1.87,.03-3.95,.05-6.23h0c.03-1.37,.06-2.8,.1-4.31,.17-7.85,.53-17.66,1.04-29.39,.79-17.75,1.2-31.04,1.2-39.92,0-1.82-1.01-2.73-3-2.73-2.14,0-5.29,.11-9.45,.37-4.17,.26-7.31,.37-9.44,.37s-5.36-.11-9.66-.37c-4.3-.26-7.51-.37-9.64-.37-1.59,0-2.37,.91-2.37,2.73,0,8.88,.24,22.17,.72,39.92,.18,6.89,.33,13.12,.44,18.66,.1,4.66,.17,8.83,.22,12.55,.04,3.27,.05,6.17,.05,8.72,0,10.52-.61,32.57-1.85,66.16-.33,8.44-.57,14.46-.72,18.05,.27,1.26,.55,2.5,.87,3.75,.18,.72,.37,1.43,.56,2.14,.13,.48,.27,.97,.41,1.45h.01c.29,.15,.59,.26,.94,.34,2.74,.68,9.14,1,19.19,1,7.5,0,13.49-.32,17.96-1,1.39-.2,2.25-.35,2.56-.43,.07-.02,.09-.03,.12-.06,.62-.41,.94-1.45,.94-3.1v-1.04c0-2.68-.02-5.73-.06-9.11-.03-3.36-.08-7.06-.13-11.09Zm-43.58,20.98c0,.16,0,.2,.02,.13-.02-.04-.02-.08-.02-.13Z"/>
      <path class="cls-2" d="M608.21,29.39c-1.47,.04-2.73,.06-3.77,.06s-2.24-.02-3.67-.06c-11.15,1.06-20.17,6.55-21.64,8.71,.01,.27,.01,.54,.02,.82,.1,8.03,.36,18.44,.78,31.2,.26,7.78,.46,14.7,.6,20.72,.17,7.29,.26,13.3,.26,18.02,0,10.21-.74,31.61-2.19,64.2-.03,.56-.05,1.11-.08,1.64-.18,3.92-.34,7.24-.47,10-.3,6.15-.48,9.39-.53,9.72v.03c.05,1.92,1.22,3.11,3.5,3.59,3.22,.64,10.7,.96,22.45,.96,8.76,0,15.76-.32,21-.96,.12-.01,.23-.03,.33-.04,1.36-7.89,2.13-16.06,2.81-24.64,.42-5.22,.54-10.44,.5-15.65-.04-1.94-.09-3.95-.15-6.01-.1-4.42-.21-8.58-.29-12.48-.09-4-.17-7.73-.22-11.17-.01-.11-.01-.23,0-.34-.14-7.59-.2-13.89-.2-18.85,0-4.16,.09-9.32,.32-15.47,.23-6.61,.58-14.36,1.06-23.27,.68-12.74,1.11-23.13,1.28-31.16,.02-.41,.03-.82,.04-1.22-2.2-2.35-10.95-7.36-21.74-8.35Z"/>
      <path class="cls-2" d="M627.67,139.22c-.11-3.74-.21-7.45-.22-11.17-.01-.11-.01-.23,0-.34-.14-7.59-.2-13.89-.2-18.85,0-4.16,.09-9.32,.32-15.47-.41-.08-.85-.19-1.33-.34-3.7-1.18-9.64-.53-14.16-.92-4.5-.4-10.15-.75-14.74-1.22-4.58-.49-8.99-.68-13.41-.17-1.14,.14-2.28,.14-3.4,.1,.17,7.29,.26,13.3,.26,18.02,0,10.21-.74,31.61-2.19,64.2-.03,.56-.05,1.11-.08,1.64,.35,3.39,.31,6.7-.47,10-1.51,6.38-5.82,12.76-15.61,19.67-22.28,15.75-66.3,13.89-102.5,9.74-9.47-1.08-18.41-2.33-26.29-3.45-3.23-.47-6.29-.91-9.12-1.31-11.62-1.64-26.9,1.82-33.57,2.01,.18,.72,.37,1.43,.56,2.14,.13,.48,.27,.97,.41,1.45h.01c.03,.13,.07,.26,.11,.39,.06,.21,.12,.43,.19,.64,.15,.51,.31,1.02,.47,1.52,.17,.53,.34,1.06,.53,1.59,.17,.52,.35,1.03,.54,1.55,.22,.63,.46,1.26,.7,1.89,.2,.51,.4,1.03,.61,1.55,.21,.54,.44,1.08,.67,1.61,1.2,2.81,2.56,5.6,4.12,8.4,.28,.51,.57,1.02,.87,1.54,.01,.02,.03,.04,.04,.06,.36,.62,.74,1.25,1.12,1.87,1.55,2.51,3.25,5.02,5.14,7.55,10.86,14.52,29.25,19.96,49.03,21.89,18.44-.22,36.84,.23,52.76,.53,1.63,.02,3.24,.05,4.82,.08,11.05,.19,22.9,.38,34.48-.39,.02-.02,.03-.02,.04,0,23.03-1.55,45-6.88,57.52-23.61,4.58-6.13,8.13-12.18,10.91-18.24,4.14-8.98,6.58-18,8.19-27.37,1.36-7.89,2.13-16.06,2.81-24.64,.42-5.22,.54-10.44,.5-15.65-.01-6.19-.25-12.36-.44-18.49Z"/>
      <path class="cls-2" d="M612.44,212.17c5.27,6.31-18.15-1.71-34.15,.57-30.07,4.29-85.75,13.14-118.35,1.37-4.47-1.61-8.52-3.62-12-6.08-8.73-6.17-12.86-11.88-14.48-17.57-.51-1.74-.78-3.46-.87-5.21-.16-2.9,.13-5.83,.62-8.85-.07-2.84-.12-5.78-.19-8.85-.4-19.66-.62-34.36-.62-44.15,0-1.87,.03-3.95,.05-6.23h0c-.04-2.94-.05-5.53-.05-7.82,0-2.5,.05-5.41,.15-8.75-1.64,.14-3.28,.22-4.94,.03-4.16-.49-8.34-.3-12.67,.15-4.32,.46-9.66,.78-13.94,1.16-2.56,.22-5.61,.09-8.39,.18-.07,0-.15,0-.22,0,.1,4.66,.17,8.83,.22,12.55,.04,3.27,.05,6.17,.05,8.72,0,10.52-.61,32.57-1.85,66.16-.33,8.44-.57,14.46-.72,18.05,.27,1.26,.55,2.5,.87,3.75,.18,.72,.37,1.43,.56,2.14,.13,.48,.27,.97,.41,1.45,.04,.13,.08,.26,.12,.39,.06,.21,.12,.43,.19,.64,.15,.51,.31,1.02,.47,1.52,.17,.53,.34,1.06,.53,1.59,.17,.52,.35,1.03,.54,1.55,.22,.63,.46,1.26,.7,1.89,.2,.51,.4,1.03,.61,1.55,.21,.54,.44,1.08,.67,1.61,1.2,2.81,2.56,5.6,4.12,8.4,.28,.51,.57,1.02,.87,1.54,.01,.02,.03,.04,.04,.06,.36,.62,.74,1.25,1.12,1.87,1.55,2.51,3.25,5.02,5.14,7.55,10.86,14.52,29.25,19.96,49.03,21.89,12.62,1.22,25.8,1,37.97,.8,4.69-.08,9.64-.18,14.79-.27,12.36-.25,25.82-.46,39.3-.31,.02-.02,.03-.02,.04,0,23.03-1.55,45-6.88,57.52-23.61,4.58-6.13,8.13-12.18,10.91-18.24,.21-2.74,.32-5.4,.3-7.88-.04-5.39-2.15-2.97-4.47-5.32Z"/>
    </g>
    <path class="cls-1" d="M604.75,0c6.49,.07,11.7,2.97,15.8,7.78,2.31,2.71,4.29,5.8,5.96,8.96,1.75,3.32,5.4,7.54,3.37,10.39-2.22,3.13-6.44-.79-9.66-1.7-12.36-3.5-24.38-2.69-36.31,1.7-1.4,.52-2.94,1.91-4.34,.57-1.38-1.31-.13-3.02,.27-4.42C583.68,9.93,594.5-.12,604.75,0Z"/>
    <path class="cls-1" d="M630.47,38.72c-.05,.16-.24,.24-.56,.24-2.27,.09-11.13-2.98-25.2-2.95-14.88,.04-24.03,3.5-25.56,2.91-.11-.04-.18-.11-.21-.2-.05-.15,.02-.36,.19-.62,1.47-2.16,10.49-7.65,21.64-8.71,.85-.08,1.71-.13,2.58-.16,1.65-.05,3.28,.01,4.86,.16,10.79,.99,19.54,6,21.74,8.35,.41,.43,.59,.77,.52,.98Z"/>
    <g>
      <path class="cls-2" d="M201.48,93.7c-.53-3.52-.93-7.13-2.73-10.65-.9,.95-1.56,1.63-2.2,2.35-10.51,11.74-21.05,23.45-31.47,35.27-1.67,1.91-3.17,2.42-5.66,1.79-9.58-2.41-19.22-4.56-28.84-6.81-2.98-9.54-5.88-19.09-9.01-28.58-.76-2.32-.28-3.84,1.29-5.55,5.77-6.3,11.42-12.72,17.12-19.08,5.35-5.97,10.72-11.93,16.4-18.25-9.59-2.05-18.64-2.13-27.6,.13-31.2,7.87-49.73,36.75-44.09,68.51,1.38,7.74,.03,14.76-5.21,20.88-4.54,5.28-8.98,10.64-13.41,16-4.25,5.14-9.81,7.49-16.33,7.73-22.8,.85-41.88,15.95-47.86,37.97-3.21,11.85-2.24,23.36,2.76,35.09,1.41-1.63,2.54-2.88,3.6-4.18,7.26-8.89,14.57-17.73,21.71-26.71,2.01-2.54,4.12-3.21,7.23-2.42,5.19,1.31,10.47,2.26,15.71,3.36,2.56,.4,3.91,1.86,4.69,4.39,1.78,5.82,3.74,11.61,5.91,17.29,.87,2.29,.49,3.86-1,5.63-4.11,4.84-8.11,9.78-12.13,14.69-4.59,5.64-9.16,11.31-13.92,17.19,6.94,2.01,13.49,2.59,20.06,1.43,28.41-4.99,47.22-31.15,43-59.81-1.04-7.08,.47-13.31,5.09-18.76,4.19-4.94,8.28-9.96,12.59-14.79,5.09-5.7,11.73-7.95,19.15-7.11,38.01,4.33,70.81-29.3,65.16-66.99Zm-92.5,57.66c-6.47,7.43-12.91,14.9-19.38,22.33-5.2,5.98-8.31,6.39-14.69,2.02v.05c-.24-.25-.48-.5-.73-.75-.99-3.14-1.47-6.27,.08-9.39,1.23-1.02,2.35-2.1,2.94-3.63-.02,0-.04,.01-.07,.01t0-.01c.23-.26,.47-.52,.7-.77h-.01c.24-.25,.49-.51,.72-.76l.04-.04c.23-.25,.47-.5,.7-.75,.23-.24,.47-.5,.69-.75h0c1.09-.69,1.99-1.54,2.31-2.85-.01,0-.04,0-.06,0h0c.23-.25,.48-.49,.71-.73l.06-.06c.21-.25,.44-.49,.66-.75h0c.25-.25,.47-.49,.71-.74,.87-.44,1.46-1.09,1.65-2.06-.04,0-.06,.01-.09,.01,0,0,.01-.02,.03-.03,.22-.25,.45-.51,.67-.76h0s.04-.04,.05-.06c.22-.24,.44-.47,.66-.7h0c.25-.26,.49-.52,.72-.78l.03-.03c.25-.25,.49-.49,.74-.75,.22-.25,.44-.5,.66-.76,.22-.24,.44-.48,.65-.73l.06-.06c.04-.61,.19-1.14,.89-1.31,.2-.25,.42-.51,.63-.77,0,0,.01-.02,.02-.03,.23-.23,.48-.45,.72-.68,.01-.02,.02-.03,.04-.04,.23-.23,.48-.48,.71-.71l.02-.02v.02c1.12-.68,1.96-1.55,2.27-2.87-.03,0-.04,0-.06,0h0c.24-.25,.47-.51,.71-.76h-.01c.25-.26,.49-.53,.74-.79,.25-.25,.52-.49,.78-.74,.21-.21,.43-.43,.65-.64,.25-.26,.52-.53,.78-.78t.01-.01l-.02,.06c3.38-1.85,6.77-1.65,10.17-.06h0s0-.01,0-.01c0,0,0,0,0,.01,4.56,5.56,4.47,8.88-.3,14.38Z"/>
      <path class="cls-3" d="M109.28,136.98h-.01s0-.01,0-.01c0,0,0,0,0,.01Z"/>
      <path class="cls-2" d="M77.2,161.99s-.04,.01-.07,.01t0-.01h.06Z"/>
      <path class="cls-2" d="M77.87,161.18s-.04,.03-.04,.04h-.01l.06-.04Z"/>
      <path class="cls-2" d="M82.28,156.08s-.04,0-.06,0h0s.05,0,.05,0Z"/>
      <path class="cls-2" d="M86.03,151.75l-.09,.02s.01-.02,.03-.03c.01,0,.04,0,.06,0Z"/>
      <path class="cls-2" d="M91.09,145.81s.02,0,.03,0l-.07,.05s.02-.03,.04-.04Z"/>
      <path class="cls-2" d="M93.23,143.56l-.02,.04h0s.02-.04,.02-.04Z"/>
      <path class="cls-2" d="M95.5,140.71s-.04,0-.06,0h0s.06,0,.06,0Z"/>
      <path class="cls-2" d="M96.19,139.91s-.03,.03-.04,.04h-.01l.05-.04Z"/>
      <path class="cls-2" d="M99.12,136.98l-.02,.06s0-.03,0-.04t.01-.01Z"/>
      <path class="cls-2" d="M109.28,136.98h-.01s0-.01,0-.01c0,0,0,0,0,.01Z"/>
      <path class="cls-1" d="M77.87,161.18v.04s-.03,0-.04,0h-.01l.06-.04Z"/>
      <path class="cls-1" d="M78.57,160.43v.03s-.02,0-.04,0l.04-.04Z"/>
      <path class="cls-1" d="M83,155.3s0,.04,0,.06c-.01,0-.04,0-.05,0l.06-.06Z"/>
      <path class="cls-1" d="M86.03,151.75h0s-.06,.02-.09,.02l.09-.02Z"/>
      <path class="cls-1" d="M86.69,150.93s0,.04,0,.05c-.01,0-.03,0-.04,0,.01-.02,.04-.04,.05-.06Z"/>
      <path class="cls-1" d="M87.4,150.18s0,.03,0,.04c-.01,0-.03,0-.04,0,.02-.01,.04-.04,.05-.05Z"/>
      <path class="cls-1" d="M91.12,145.81v.04s-.04,0-.07,0l.07-.05Z"/>
      <path class="cls-1" d="M91.74,145.01s0,.01,0,.02c0,0,0,0-.01,0,0,0,.01-.02,.02-.03Z"/>
      <path class="cls-1" d="M92.5,144.29s0,.02,0,.04c0,0-.02,0-.03,0,.01-.02,.02-.03,.04-.04Z"/>
      <path class="cls-1" d="M93.23,143.56v.02s-.01,0-.02,.01l.02-.04Z"/>
      <path class="cls-1" d="M96.19,139.91v.04s-.02,0-.04,0h-.01l.05-.04Z"/>
      <path class="cls-1" d="M108.97,151.36c-6.47,7.43-12.91,14.9-19.38,22.33-5.2,5.98-8.31,6.39-14.69,2.02v.05c-.24-.25-.48-.5-.73-.75-.99-3.14-1.47-6.27,.08-9.39,1.23-1.02,2.35-2.1,2.94-3.63,.45-.05,.66-.32,.68-.78,.46-.04,.68-.31,.7-.76,.47-.04,.68-.32,.7-.78,.23-.24,.47-.5,.69-.75h0c1.09-.69,1.99-1.54,2.31-2.85,.45-.04,.67-.3,.71-.73,.44-.08,.64-.36,.67-.81h0c.25-.25,.47-.49,.71-.74,.87-.44,1.46-1.09,1.65-2.06,.44-.06,.65-.33,.66-.78,.45-.05,.68-.31,.71-.76,.46-.05,.67-.34,.69-.8,.25-.25,.49-.49,.74-.75,.22-.25,.44-.5,.66-.76,.22-.24,.44-.48,.65-.73l.06-.06c.61-.2,.93-.61,.92-1.27,.47-.06,.54-.44,.61-.81,.4-.08,.73-.23,.76-.71,.46-.04,.69-.3,.73-.75,1.12-.68,1.96-1.55,2.27-2.87,.46-.04,.66-.31,.69-.76,.47-.04,.67-.33,.69-.78,.25-.25,.52-.49,.78-.74,.21-.21,.43-.43,.65-.64,.25-.26,.52-.53,.78-.78t.01-.01l-.02,.06c3.38-1.85,6.77-1.65,10.17-.06h0c4.56,5.56,4.47,8.88-.3,14.38Z"/>
      <path class="cls-3" d="M99.12,136.98l-.02,.06s0-.03,0-.04t.01-.01Z"/>
      <path class="cls-3" d="M109.28,136.98h-.01s0-.01,0-.01c0,0,0,0,0,.01Z"/>
      <path class="cls-3" d="M77.2,161.99s-.04,.01-.07,.01t0-.01h.06Z"/>
      <path class="cls-3" d="M93.23,143.56v.02s-.01,0-.02,.01h0s.02-.04,.02-.04Z"/>
      <path class="cls-3" d="M95.5,140.71s-.04,0-.06,0h0s.06,0,.06,0Z"/>
      <path class="cls-3" d="M82.28,156.08s-.04,0-.06,0h0s.05,0,.05,0Z"/>
      <path class="cls-3" d="M86.03,151.75h0s-.06,.02-.09,.02c0,0,.01-.02,.03-.03,.01,0,.04,0,.06,0Z"/>
      <path class="cls-3" d="M91.12,145.8v.04c.01,.66-.3,1.07-.92,1.27,.04-.61,.19-1.14,.89-1.31,0,0,.02,0,.03,0Z"/>
      <path class="cls-3" d="M96.88,139.16c-.02,.45-.23,.74-.69,.78,0,0-.02,0-.04,0h-.01c.25-.26,.49-.53,.74-.79Z"/>
      <path class="cls-3" d="M96.19,139.91v.04c-.03,.45-.23,.73-.69,.76-.03,0-.04,0-.06,0h0c.24-.25,.47-.51,.71-.76,0-.01,.02-.03,.04-.04Z"/>
      <path class="cls-3" d="M93.23,143.56v.02c-.04,.45-.28,.71-.73,.75,0,0-.02,0-.03,0,.01-.02,.02-.03,.04-.04,.23-.23,.48-.48,.71-.71l.02-.02Z"/>
      <path class="cls-3" d="M92.5,144.29s0,.02,0,.04c-.02,.48-.36,.63-.76,.71,0,0,0,0-.01,0,0,0,.01-.02,.02-.03,.23-.23,.48-.45,.72-.68,.01-.02,.02-.03,.04-.04Z"/>
      <path class="cls-3" d="M91.74,145.01s0,.01,0,.02c-.08,.37-.15,.76-.61,.81-.02,0-.04,0-.06,0,.01-.01,.02-.03,.04-.04,.2-.25,.42-.51,.63-.77,0,0,.01-.02,.02-.03Z"/>
      <path class="cls-3" d="M88.09,149.42c-.02,.46-.23,.75-.69,.8-.01,0-.03,0-.05,0h0c.25-.26,.49-.52,.72-.78l.03-.03Z"/>
      <path class="cls-3" d="M87.4,150.18s0,.03,0,.04c-.04,.45-.26,.71-.71,.76-.01,0-.03,0-.04,0,.01-.02,.04-.04,.05-.06,.22-.24,.44-.47,.66-.7,.03-.01,.04-.04,.06-.05Z"/>
      <path class="cls-3" d="M86.69,150.93s0,.04,0,.05c0,.45-.22,.71-.66,.78-.04,0-.06,.01-.09,.01,0,0,.01-.02,.03-.03,.22-.25,.45-.51,.67-.76h0s.04-.04,.05-.06Z"/>
      <path class="cls-3" d="M83.67,154.55c-.03,.45-.23,.73-.67,.81-.01,0-.04,0-.05,0l.06-.06c.21-.25,.44-.49,.66-.75Z"/>
      <path class="cls-3" d="M83,155.3s0,.04,0,.06c-.04,.43-.26,.69-.71,.73-.01,0-.04,0-.06,0h0c.23-.25,.48-.49,.71-.73l.06-.06Z"/>
      <path class="cls-3" d="M79.27,159.68c-.02,.45-.23,.73-.7,.78,0,0-.02,0-.04,0l.04-.04c.23-.25,.47-.5,.7-.75Z"/>
      <path class="cls-3" d="M78.57,160.43v.03c-.02,.45-.24,.72-.7,.76-.01,0-.03,0-.04,0h-.01c.24-.25,.49-.51,.72-.76l.04-.04Z"/>
      <path class="cls-3" d="M77.87,161.18v.04c-.02,.45-.23,.73-.68,.78-.02,0-.04,.01-.07,.01t0-.01c.23-.26,.47-.52,.7-.77,0-.01,.02-.03,.04-.04Z"/>
    </g>
  </g>
</svg>