<?xml version="1.0" encoding="UTF-8"?>
<svg id="Layer_2" data-name="Layer 2" xmlns="http://www.w3.org/2000/svg" xmlns:xlink="http://www.w3.org/1999/xlink" viewBox="0 0 433.13 703.86">
  <defs>
    <style>
      .cls-1 {
        opacity: .5;
      }

      .cls-2 {
        fill: #f8c617;
      }

      .cls-3 {
        fill: #19408f;
      }
    </style>
  </defs>
  <g id="Layer_1-2" data-name="Layer 1">
    <g class="cls-1">
      <path class="cls-3" d="M411.81,550.92c.15-2.15,.4-3.94,.83-5.7,.13-.54,.25-1.09,.45-1.61,.15-.37,.42-.71,.91-.62,.38,.07,.45,.38,.51,.71,.2,1.24,.88,1.28,1.62,.51,.83-.85,1.61-1.5,2.91-1.03,.66,.24,1.17-.3,1.73-.61,1.66-.92,2.86-.48,3.68,1.22,.5,1.03,.64,2.13,.69,3.26,.31,6.23,.15,12.47,.17,18.71,0,2.64,.05,5.28-.02,7.92-.09,3.07,.67,5.77,2.79,8.11,1.19,1.32,1.26,3.13,.94,4.8-.6,3.14-.24,6.27,.47,9.26,1.25,5.29,2.41,10.59,3.13,15.98,.57,4.21,.6,8.45,.35,12.69-.1,1.76-.53,3.49-1.49,5.01-.57,.91-.69,1.73-.03,2.65,.27,.37,.46,.87,.49,1.33,.27,4.06,.59,8.13-.03,12.19-.35,2.32-.11,4.63,.02,6.92,.19,3.33-.08,6.5-1.47,9.6-.69,1.55-1.62,2.76-3.01,3.6-3.08,1.86-6.24,3.57-9.69,4.7-1.64,.54-3.33,.38-5,.37-1.32-.01-2.53,.24-3.68,.86-4.57,2.46-9.13,4.94-13.73,7.34-3.97,2.07-7.96,4.08-12,6.02-3.02,1.45-5.87,3.28-9.09,4.31-.42,.14-.82,.51-1.11,.87-2.22,2.75-5.22,4.43-8.28,6.01-.99,.51-2.03,.94-3.03,1.45-3.05,1.55-6.24,2.33-9.69,2.26-4.48-.09-8.96,.04-13.44,.08-1.13,.01-2.23-.02-3.2-.74-.69-.51-1.52-.42-2.32-.41-8.48,.1-16.96,.21-25.44,.28-2.66,.02-5.21,.83-7.85,.97-.9,.05-1.14,.63-1.27,1.44-.35,2.21-.38,2.22-2.68,2.22-15.44,0-30.88,.01-46.32,.01-6.24,0-12.48-.02-18.71-.04-.32,0-.64,0-.96-.03-1.66-.14-1.95-.34-1.98-2.04-.05-3.28,.02-6.55,.01-9.83-.01-3.28-.03-6.55-.12-9.83-.02-.86-.25-1.75-.54-2.57-1.6-4.55-2.21-9.31-3.02-14.03-.3-1.74-.34-3.51-.24-5.26,.17-3.15-.43-6.19-1.22-9.22-1.34-5.18-2.7-10.35-4.01-15.53-.68-2.7-.57-5.55-1.5-8.23-1.15-3.31-1.42-6.85-2.43-10.21-.69-2.28-.46-4.76-1.34-7.03-1.09-2.81-1.61-5.81-3.15-8.47-.83-1.43-1.33-3.07-1.85-4.66-1.69-5.15-3.16-10.37-4.59-15.61-1.29-4.74-1.19-9.49-1.12-14.27,.04-2.58-.78-4.8-1.97-6.99-1.12-2.05-1.64-4.3-1.84-6.61-.12-1.43-.21-2.9-.03-4.31,.36-2.83-.53-5.38-1.62-7.85-1.02-2.29-1.71-4.69-2.08-7.11-.52-3.42-2.37-6.45-2.65-9.91-.02-.22-.18-.46-.48-.45-.53,0-.64,.42-.66,.81-.1,2.58-.92,5.02-1.39,7.53-1.33,7.06-2.59,14.16-4.87,20.97-1.79,5.35-2.34,10.92-3.64,16.34-.33,1.38-.33,2.86-.41,4.29-.11,1.93-.32,3.83-1.3,5.55-.46,.81-.38,1.7-.38,2.58,.02,5.32-.95,10.49-2.58,15.53-.52,1.6-1,3.2-1.3,4.86-.55,2.99-1.35,5.9-2.62,8.69-1.3,2.85-1.97,5.93-2.41,9.01-.46,3.18-1.4,6.23-2.25,9.3-.28,1.02-.34,2.05-.32,3.09,.05,4.42-.4,8.76-1.77,13-.88,2.73-1.15,5.69-2.28,8.29-1.98,4.58-2.08,9.22-1.84,14.07,.25,4.94-.2,9.87-1.41,14.74-.97,3.92-.58,7.94,.06,11.9,.38,2.36,1.18,4.64,1.24,7.06,.05,2.31-.01,2.43-2.37,2.44-17.44,0-34.88,0-52.32-.01-4.4,0-8.8,0-13.2,0-2.23,0-2.45-.23-2.41-2.48,0-.16,.05-.32,.02-.48-.46-3,.23-5.84,1.12-8.68,1.03-3.28,.94-6.6,.02-9.92-1.64-5.91-1.27-11.67,1.31-17.29,.56-1.22,1.02-2.56,1.16-3.88,.35-3.33,.54-6.69,.7-10.04,.14-2.95-1.04-5.63-2.02-8.33-.33-.92-.62-1.81-.62-2.78,.01-3.31-1.04-6.42-1.65-9.62-.65-3.43-1.65-6.85-1.46-10.41,.02-.32,.05-.65,0-.96-1.2-7.32-.46-14.68-.6-22.03-.02-1.28-.07-2.55-.37-3.81-.45-1.88-1.04-3.61-2.37-5.13-1.91-2.19-2.4-5-2.85-7.77-.21-1.27,.43-2.34,1.18-3.3,1.64-2.1,2.41-4.44,2.38-7.11-.05-3.76,0-7.52,0-11.27,0-1.52-.49-3.06-.46-4.48,.04-2.07-1.33-3.57-1.43-5.53-.1-2-.05-3.99-.09-5.99-.04-2-.13-4.01,.04-5.99,.13-1.49,.5-3.01,1.04-4.4,1.01-2.62,.94-5.3,.9-8.01-.02-1.44-.17-2.88,.24-4.29,.09-.3,.2-.66,.12-.94-.7-2.41,.67-4.51,1.05-6.75,.21-1.26,.49-2.49,.5-3.78,.04-8.07,.11-16.15,.14-24.22,.02-5.03-.07-10.05,0-15.08,.02-1.53-.1-3.26,1.76-4.1,.23-.1,.5-.55,.46-.79-.43-2.4,.25-4.81-.58-7.29-.83-2.48-1.64-4.39-4.33-5.25-2.41-.78-3.01-2.95-3.03-5.2-.08-8.94-.16-17.89-.13-26.83,.04-11.35,.16-22.71,.32-34.06,.07-5.03,.09-10.09,2.76-14.65,.71-1.21,.76-2.58,.74-3.96-.03-2.48,.11-4.96-.03-7.44-.16-2.85,.36-5.58,1.22-8.24,.72-2.21,.49-4.42,.48-6.65,0-.74-.42-1.35-.83-1.96-1.18-1.78-1.6-3.74-1.74-5.88-.33-5.09,.7-10.04,1.26-15.03,.42-3.75,.06-7.51,.4-11.25,.02-.23-.06-.48-.57-.52-.83,1.64-1.2,3.45-1.17,5.35,.06,3.37-.25,6.71-.51,10.06-.23,2.86-1.03,5.48-2.93,7.71-.95,1.12-1.97,2.01-3.41,2.51-2.47,.85-2.72,1.67-1.63,4.18,1.73,3.97,.61,9.81-2.55,12.86-.67,.65-.84,1.29-.73,2.13,.57,4.62-.11,9.07-1.65,13.44-1.04,2.95-1.51,6.05-1.83,9.15-.46,4.39-1.32,8.68-2.61,12.89-.61,2-.72,4.09-.97,6.15-.53,4.37-1,8.77-2.58,12.9-1.52,3.95-2.96,7.92-4.22,11.96-.39,1.24-.63,2.48-.64,3.76-.02,3.36-.06,6.71-.01,10.07,.02,1.54-.14,3.04-.7,4.47-.47,1.21-.32,2.3,.29,3.44,1.72,3.2,2.3,6.63,1.81,10.22-.34,2.49-.36,4.92,.55,7.32,.3,.8,.45,1.75,.34,2.6-.48,3.88,1.04,7.36,2.15,10.9,.53,1.68,.97,3.36,1.27,5.1,.84,4.79,1.21,9.69,2.76,14.33,.9,2.71,2.08,5.33,2.57,8.18,.37,2.15,.26,4.3,.33,6.46,.04,1.34-.56,1.84-1.85,2.04-2.4,.36-4.1-.97-5.78-2.36-.18-.15-.29-.4-.15-.65,.18-.32,.49-.38,.82-.32,.75,.12,1.23,.73,1.88,1.03,1.76,.82,3.52,.17,3.86-1.39,.28-1.27-.18-1.71-1.47-1.43-.16,.03-.3,.12-.45,.15-.56,.12-1.18,.2-1.56-.3-.46-.61,.14-1,.46-1.43,.13-.18,.22-.4,.38-.72-.79-.38-1.21,.06-1.62,.54-.53,.62-1.16,1.45-1.9,.51-.59-.74-.03-1.55,.73-1.98,1.03-.58,1.49-1.65,2.25-2.46,.22-.24,.33-.54,.04-.99-1.1-.07-1.71,.87-2.51,1.44-.71,.5-1.18,.38-1.36-.52-.26-1.38,.17-2.23,1.46-2.82q.86-.4,1.96-2.35c-1.18-.4-1.96,.39-2.81,.83-.41,.22-.7,.67-1.11,.9-.67,.37-1.35-.08-1.26-.84,.12-.99,.62-1.81,1.42-2.41,.38-.29,.84-.47,1.22-.76,.45-.34,.98-.78,.7-1.38-.32-.71-.95-.32-1.46-.13-.39,.15-.76,.21-1.15,.02-1.24-.58-2.83-4.42-2.14-5.58,.87-1.46,.69-3.1,1.08-4.64,.1-.4,.01-.83-.47-.96-.43-.11-.76,.14-1.02,.46-.31,.39-.52,.84-.48,1.32,.11,1.29-.62,1.56-1.72,1.77-2.14,.4-2.9,1.9-2.28,4.06,.81,2.83,1.66,5.63,3.42,8.07,.54,.74,.19,1.51-.49,2.25-.75-.75-1.04-1.64-1.12-2.59-.07-.82-.44-1.51-.77-2.24-.5-1.08-1.18-1.25-2.31-.98-3.67,.88-3.69,.83-4.28,4.58-.09,.54-.15,1.14-.02,1.66,.73,2.97,.71,6.01,.82,9.04,.07,2.04,.77,3.71,2.64,4.78,1.17,.67,1.9,1.94,3.22,2.46,.24,.09,.49,.5,.49,.77,.01,1.03,.63,1.35,1.5,1.53,2.02,.44,3.36,2.12,5.19,2.92,.37,.16,.53,.58,.52,1.01,0,.59,.28,.87,.88,.83,.89-.05,1.26,.63,1.59,1.26,.71,1.33,1,2.76,.11,4.1-.89,1.34-2.39,1.74-3.82,1.43-2.07-.45-4.13-.43-6.2-.45-3.17-.04-6.13-1.1-8.99-2.21-3.7-1.43-7.36-3.06-10.8-5.03-3.3-1.89-5.71-4.73-6.46-8.7,.84-.18,.9,.65,1.39,.84,.32,.12,.62,.19,.89-.05,.27-.25,.32-.66,.11-.88-1.62-1.74-1.86-3.98-2.38-6.14-.24-1.01-1.05-1.97-1.95-2.34-1.97-.81-2.35-2.55-2.68-4.21-.19-.95-.42-1.59-1.2-2.15-.77-.55-1.22-1.33-.46-2.24,.45-.55,.52-1-.22-1.3-1.25-.51-1.15-1.61-1.17-2.64-.03-3.28-.07-6.55-.04-9.83,.01-1.5-.33-2.86-1.29-4.01-.87-1.05-1.19-2.22-1.08-3.56,.26-3.25-.33-6.36-1.56-9.37-.34-.84-.41-1.73-.28-2.6,.28-1.94,.07-3.84-.51-5.69-.93-2.94-1.14-5.95-1.03-9,.11-3.28-.15-6.54-.25-9.81-.22-6.95-.15-13.9-.17-20.86,0-2.08-.1-4.13-.51-6.19-1.16-5.75-1.17-11.59-1.31-17.43-.06-2.68,.65-5.22,1.27-7.77,.33-1.34,.5-2.66,.53-4.02,.1-4.96,.23-9.91,.3-14.87,.03-2.12,.64-4.11,1.27-6.07,.4-1.25,.84-2.47,.65-3.72-.54-3.51,.46-6.77,1.4-10.04,.27-.94,.41-1.87,.4-2.83-.05-5.28-.11-10.55-.13-15.83,0-1.6,.04-3.2,.22-4.79,.23-1.96,.96-3.73,2.63-4.94,2.29-1.67,2.97-4.1,3.08-6.72,.11-2.71,.08-5.44,0-8.15-.05-1.68,.34-3.11,1.46-4.41,1.75-2.02,2.37-4.5,2.39-7.11,.02-2.64,.03-5.28-.14-7.91-.13-1.91,.44-3.54,1.72-4.81,1.61-1.6,2.12-3.59,2.16-5.65,.05-2.03,.46-3.81,1.9-5.23,1.81-1.79,2.25-4.05,2.14-6.39-.1-2.2,.34-3.98,1.92-5.64,1.49-1.55,1.69-3.75,1.8-5.83,.09-1.59,0-3.2-.06-4.79-.05-1.52,.3-2.95,1.44-3.93,2.11-1.81,2.6-4.22,2.5-6.71-.09-2.23,.76-3.9,1.79-5.77,1.64-2.97,2.84-6.14,4.92-8.93,1.09-1.45,1.14-3.63,1.05-5.58-.05-1.16,.19-2.16,1.02-3.08,1.34-1.49,2.48-3.07,2.51-5.27,.02-1.43,1.27-2.36,2.05-3.45,.61-.86,1.23-1.67,1.4-2.74,.37-2.32,1.68-4.1,3.26-5.74,.94-.98,1.83-2.01,2.82-2.94,1.21-1.14,1.91-2.47,2.32-4.09,.5-1.97,1.77-3.59,3.16-5.02,1.44-1.49,3.06-2.81,4.63-4.17,1.53-1.34,3.22-2.36,5.3-2.58,1.12-.12,1.86-.9,2.56-1.66,.97-1.03,2.14-1.78,3.5-1.95,2.7-.33,4.41-2.13,6.11-3.92,1.8-1.9,3.69-3.52,6.44-3.74,1.83-.15,2.83-1.71,4.27-2.53,.47-.27,.22-.87,.13-1.34-.15-.72,.14-1.42,.71-1.64,1.64-.64,2.85-2.1,4.63-2.4,1.68-.28,2.69-1.31,3.28-2.8,.24-.62,.54-1.17,1.04-1.58,1.93-1.6,3.17-3.77,4.76-5.65,.86-1.03,.91-2.35,1.42-3.5,1.28-2.89,3-5.47,5.06-7.82,1.7-1.95,3.18-4.01,3.99-6.49,.99-3.04,3.49-4.95,5.53-7.14,2.5-2.67,4.75-5.64,7.9-7.66,.76-.49,.92-1.15,.75-2.07-.58-3.21-.98-6.43-2-9.58-.56-1.75-1.11-3.78-.75-5.8,.11-.61,.1-1.35-.14-1.89-1.37-3-1.25-6.18-1.21-9.34,.01-1.53-.89-2.71-1.12-4.12-.06-.37-.41-.34-.72-.43-1.23-.35-1.43-.86-.45-1.62,1.68-1.3,1.53-3.02,1.48-4.78-.06-1.91-1.08-3.68-.9-5.64,.02-.21-.12-.46-.24-.67-3-5.4-4.13-11.39-3.53-17.45,.24-2.45,.14-4.94,.1-7.41-.03-2.34,.08-4.59,1.25-6.73,1.15-2.1,1.81-4.44,3.05-6.5,.34-.56,.49-1.2,.5-1.84,.03-1.89,1.04-3.24,2.16-4.66,1.69-2.13,3.35-4.27,5.34-6.12,2.31-2.16,4.55-4.42,6.99-6.42,3.36-2.75,7.18-4.71,11.53-5.4,.96-.15,1.83-.44,2.71-.85,1.57-.73,3.28-.57,4.96-.6,2.02-.04,4.05,.42,6.08-.39,.8-.32,2.02-.24,2.79,.17,2.44,1.28,5.22,1.45,7.71,2.55,1.23,.55,2.28,1.38,3.5,1.98,2.65,1.3,5.44,2.23,8.09,3.48,1.83,.87,2.92,2.7,4.53,3.89,4.69,3.45,6.69,8.61,8.51,13.8,1.18,3.37,2.38,6.8,2.96,10.3,.63,3.77,1.71,7.49,1.76,11.35,0,.8,.03,1.61,.16,2.39,.46,2.76,.02,5.41-.86,8.02-.2,.6-.39,1.22-.52,1.85-.47,2.22-.23,2.49,1.93,3.18,1.28,.41,2.5,1.02,3.71,1.62,.86,.43,1.17,1.32,1.32,2.19,.82,4.62,1.01,9.22-1.03,13.62-1.8,3.9-3.63,7.79-5.47,11.67-.34,.72-.76,1.47-1.53,1.79-1.13,.46-1.48,1.41-1.69,2.44-.39,1.87-.72,3.76-1.07,5.64-.19,.97,.11,1.69,.96,2.24,1.14,.74,2.2,1.56,3.46,2.13,3.89,1.73,6.75,4.63,9.38,7.96,3.44,4.35,5.68,9.38,8.6,14.02,.65,1.03,1.49,1.87,2.36,2.69,1.43,1.35,2.04,3.03,2.03,4.95,0,.86-.41,1.73,.31,2.51,.93,1.01,1.92,1.94,3.24,2.37,2.41,.79,4.67,1.78,6.77,3.26,1.2,.85,2.69,1.34,4.03,1.94,3.21,1.43,6.19,3.26,9.32,4.82,2.61,1.3,5.19,2.71,7.6,4.47,1.84,1.33,3.76,2.77,6.1,3.53,1.5,.49,2.97,1.42,4.43,2.19,2.11,1.11,4.36,1.89,6.42,3.08,.7,.4,1.44,.71,1.97,1.33,.79,.92,1.66,1.72,2.87,2.08,.3,.09,.64,.24,.83,.46,2.92,3.49,6.93,6.07,8.75,10.5,.38,.93,1.19,1.69,1.78,2.54,1.54,2.21,2.91,4.51,3.67,7.13,.11,.37,.35,.71,.58,1.03,.23,.33,.72,.6,.74,.92,.12,2.09,1.78,3.46,2.41,5.32,.61,1.78,1.64,3.42,2.53,5.08,1.69,3.15,3.29,6.34,4.45,9.7,.99,2.86,2.23,5.63,3,8.59,.37,1.44,1.22,2.76,1.82,4.15,2.71,6.32,4.47,12.97,6.68,19.46,1.28,3.77,2.65,7.52,3.78,11.34,.84,2.82,1.83,5.6,2.09,8.58,.15,1.73,.74,3.42,1.18,5.12,.93,3.62,2.35,7.12,2.54,10.92,.06,1.18,.38,2.37,.73,3.5,1.18,3.82,1.6,7.81,2.35,11.71,.94,4.92,2.57,9.73,2.75,14.82,.07,1.94,.5,3.95,1.38,5.78,.7,1.47,.51,3.13,.92,4.69,.97,3.72,1.65,7.51,1.37,11.38-.15,2.07,.66,3.95,1.16,5.84,.61,2.3,.73,4.58,.75,6.88,.03,2.65,.19,5.25,.87,7.83,.91,3.42,1.1,6.95,1.08,10.47-.02,3.14,.26,6.25,1.2,9.23,.79,2.5,.83,5.03,.82,7.59-.01,6.24,.03,12.47-.04,18.71-.03,2.82,.41,5.58,1.02,8.3,.91,4.07,.78,8.09-.32,12.08-.52,1.88-.64,3.78-.63,5.7,.03,7.92,.08,15.83,.08,23.75,0,6.4-.05,12.79-.08,19.19,0,.88,.09,1.87-.7,2.44-1.05,.75-1.02,1.66-.79,2.74,.57,2.66,.89,5.35,.97,8.07,.05,1.68,.61,3.3,1.28,4.85,.47,1.09,.39,2.02,.09,3.19-.89,3.48-1.5,7.03-1.95,10.59-.06,.49,.01,.97,.29,1.38,1.49,2.17,2.68,4.55,4.82,6.23,.92,.72,1.83,1.13,3.05,1.07,2.39-.13,4.8-.02,7.2-.13,3.37-.15,6.37,.95,9.45,2.21,5.11,2.08,8.39,5.93,11.18,10.38,1.74,2.78,3.66,5.42,5.78,7.91,3.37,3.96,6.34,8.18,8.73,12.84,1.53,2.97,3.5,5.72,5.29,8.55,.11,.18,.37,.27,.97,.67Zm-138.73,4.44c-.47,.39-.95,.78-.76,1.66,.74-.48,.57-1.17,.71-1.73,.15-.45,.98-.6,.62-1.33-.72,.29-.48,.91-.58,1.41ZM171.26,16.24c-.07,.71,.3,1.12,1.13,1.46-.25-.76-.56-1.21-1.18-1.4-.24-1.01-.78-1.72-2.24-2.2,.78,1.18,1.2,2.02,2.3,2.15Zm97.51,553.71c-.58-.33-.98-1.24-2-.64,.58,.84,1.32,.72,2.07,.59,.73,1.38,.73,1.38,2.13,1.23-.56-.77-1.33-1.06-2.19-1.18ZM175.12,95.87c-.02,.32-.08,.63-.06,.95,.02,.32,.08,.66,.43,.78,.12,.04,.33,0,.41-.09,.32-.35,.25-.75-.06-1.05-.22-.22-.52-.35-.79-.52-.03-.31-.05-.63-.1-.94-.07-.47-.15-.96-.77-.99-.13,0-.34,.09-.4,.2-.32,.6-.08,1.07,.43,1.4,.25,.16,.59,.19,.89,.28Zm104.87,445.16c1.46-.31,2.08-1.66,3.18-2.42-2.02-.35-2.33,1.37-3.13,2.49-.46,.95-1.49,1.65-1.33,3.04,1.17-.81,1.51-1.84,1.28-3.11Zm115.03,69.46c-1.21,.98-1.96,2.27-2.17,4.18,.8-1.73,2.48-2.41,2.1-4.24,.42-.37,.87-.72,.72-1.37-.01-.05-.31-.12-.39-.06-.53,.4-.47,.94-.27,1.49ZM230.76,149.76c-.89,.09-1.37,.78-1.91,1.33-4.71,4.79-9.71,9.26-14.72,13.73-5.57,4.98-9.22,11.16-11.9,18.01-.17,.44-.27,.92-.32,1.39-.05,.37-.45,.78,.1,1.38,.66-1.57,1.28-2.95,1.82-4.36,2.3-5.99,5.61-11.29,10.48-15.54,5.06-4.41,9.86-9.11,14.7-13.77,.67-.65,1.55-1.18,1.7-2.24,.63-.13,1.12-.36,.91-1.17-.53,.24-.92,.57-.86,1.22Zm72.2,398.93c.56-.89,.34-1.67-.33-2.38-.33-.35-.74-.74-1.2-.28-.34,.33-.09,.73,.16,1.05,.44,.55,1.21,.81,1.4,1.58,.34,.99-.21,1.87-.38,2.8-.15,.81-.74,1.13-1.56,1.22-3.16,.35-6.31,.85-9.5,.83-2.17-.01-4.49,.69-6.32-1.37,.96,5.36,3.76,9.26,8.44,11.83,1.04,.57,1.9,.25,2.57-.53,1.13-1.33,2.27-2.67,2.99-4.29,.09-.21,.06-.46-.24-.58-.66,.22-1,.74-1.17,1.39-.32,1.26-1.31,1.98-2.23,2.73-.94,.76-1.99,.72-2.87-.02-2.22-1.86-4.03-4.09-5.26-6.73-.49-1.05-.08-1.56,1.23-1.5,1.68,.08,3.36-.23,5.02-.14,2.61,.14,5.17-1.09,7.79-.26,.25,.08,.48-.09,.58-.32,.57-1.3,1.41-2.52,1.41-4.02,0-.45-.28-.72-.55-1.02Zm103.81,71.41c-1.29,.34-2.25,.97-2.88,2.27-.51,1.05-1.46,1.88-2.12,2.88-.44,.66-1.24,1.12-1.42,2.22,1.74-1.04,2.39-2.9,3.98-3.63,.74,.43-.22,1.37,.58,1.61,3.76-3.41,6.09-8.11,10.49-10.86,.17-.11,.22-.41,.31-.63,.5-1.19,1.32-2.18,2.04-3.23,1.38-2,2.5-4.13,3.66-6.72-.48,.38-.64,.45-.71,.57-2.89,4.93-6.98,8.87-10.81,13.03-.94,1.02-2.47,1.2-3.13,2.5h0ZM167.35,143.06c.71,.07,1.42,.14,2.14,.2,1.09,.08,2.8-.83,3.19-1.73,.48-1.1-.26-1.8-.9-2.51-.05-.06-.11-.12-.16-.18-.57-.89-1.13-1.52-2.27-.63-.89,.69-1.73,.18-2.23-.64-1.13-1.85-2.65-3.19-4.35-4.57-1.75-1.42-3.55-2.92-5.13-4.6-.62-.66-1.17-1.28-2.24-.8-.64,.29-1.28-.21-1.15-.78,.46-1.97-.87-2.67-2.17-3.43-.43-.25-.81-.52-1.02-.97-.98-2.12-2.82-3.66-3.88-5.73-.18-.35-.33-.8-.83-.62-.46,.16-.43,.63-.38,1.02,.62,4.76,.35,9.57,.52,14.35,.23,6.62,2.33,12.47,5.78,17.99,1.88,3,4.5,5.38,6.55,8.24,1.48,2.07,3.22,3.95,4.82,5.94,.56,.7,1.15,1.01,2.07,.71,2.51-.8,4.53,.04,6.13,2.02,.7,.87,1.34,1.79,2.02,2.68,.19,.25,.41,.57,.78,.39,.43-.21,.4-.64,.32-1.04-.1-.53-.62-.69-.9-1.05-.87-1.09-2.09-2.16-1.45-3.76,.46-1.14,.04-1.6-.93-2-1.04-.43-1.97-1.07-2.7-1.94-.51-.61-.46-1.25,.3-1.56,1.2-.48,2.47-.78,2.35-2.51-.03-.39,.56-.48,.91-.67,.88-.46,1.78-.66,2.77-.49,.33,.06,.63-.11,.76-.45,.13-.33,.01-.65-.23-.87-.23-.21-.51-.38-.79-.52-.45-.23-.85-.51-.74-1.08,.12-.63,.66-.59,1.14-.6,.49-.01,.89-.31,.56-.72-.81-1,.46-1.74,.32-2.59-1.34-.61-2.66-1.03-3.82-1.66-1.71-.93-3.88-1.1-5.1-2.89l-.06,.06Zm-14.08-37.24c1.95,.15,2.71,.49,2.64,1.67-.08,1.32,.9,2.19,1,3.39,.05,.59,.53,.75,1.07,.46,1.44-.76,2.73-3.67,2.3-5.22-.06-.21-.23-.42-.42-.54-.45-.29-1.16-.25-1.24-.97-.09-.78,.52-1.08,1.06-1.43,.25-.16,.49-.4,.64-.67,1.35-2.36,2.77-4.64,5.72-5.29,.28-.06,.53-.34,.77-.55,2.15-1.89,4.7-3.16,7.18-4.55,.37-.21,.74-.33,.61-.84-.12-.45-.5-.59-.91-.64-.9-.13-1.46,.39-2.06,.97-.64,.62-1.38,.27-1.94-.21-.56-.48-.5-1.13-.13-1.75,.64-1.07,1.6-1.57,2.82-1.38,.62,.09,1.22,.37,1.81,.61,.54,.22,1.2,.48,1.55-.04,.97-1.44,2.64-2.05,3.71-3.35,.48-.58,.87-1.11,.63-1.93-1.01-3.44-1.78-6.89-.69-10.48,.11-.37,.05-.79,.04-1.19-.06-2.63,.15-5.27-.4-7.88-.16-.76-.05-1.6,.05-2.38,.08-.64,.62-1.11,1.2-.74,1.44,.9,2.14-.31,3.14-.85,1.48-.79,1.34-2.03,1.14-3.31-.11-.73-.09-1.41,.26-2.09,.42-.83,.84-1.4,1.79-.61,.5,.42,1.05,.73,1.75,.61,2.06-.37,3.83-3.66,2.78-5.47-.66-1.14-.72-2.06,.03-3.08,.7-.95,.59-1.83,.11-2.9-1.13-2.49-2.66-4.34-5.65-4.41-.47-.01-1.04-.09-1.03-.73,0-.57,.51-.77,.97-.91,.97-.29,1.89-.11,2.78,.34,.71,.36,1.39,.34,1.97-.27,1.28-1.34,.2-5.51-1.61-5.61-1.17-.06-2.71-.23-3.64,.47-1.33,1-2.39,1-3.7,.24-.24-.14-.66-.15-.93-.05-2.89,1.04-4.9-.46-6.8-2.32-.28-.28-.58-.55-.89-.79-.42-.32-.89-.37-1.32-.02-.4,.33-.16,.68-.04,1.07,.4,1.3,.13,1.67-1.07,1.34-1.22-.34-2.44-.77-3.45-1.6-.29-.24-.6-.53-1.03-.16-1.42,1.23-2.99,.87-4.51,.3-1.34-.5-2.65-1.11-3.94-1.74-3.76-1.81-6.36-1.13-9.06,2.07-1.91,2.26-3.53,4.71-5.32,7.04-.61,.79-1.11,1.33-.12,2.16,.49,.41,.29,1.08,.1,1.59-.55,1.55-.66,3.07-.14,4.67,.16,.5,.03,1.11,.02,1.66-.06,2.27-1.34,4.41-.63,6.77,.16,.53-.29,1.06-.69,1.47-.74,.75-1.02,1.76-.84,2.66,.42,2.1-.13,4.13-.19,6.19-.19,6,.42,11.95,1.05,17.9,.24,2.29,.79,4.56,1.35,6.8,.39,1.58,1.72,2.88,1.43,4.7-.04,.22,.27,.62,.52,.74,1.06,.52,1.38,1.5,1.66,2.51,.24,.85,.62,1.52,1.67,1.24,1.21-.32,1.42,.35,1.7,1.35,.54,1.94-.11,4.62,2.91,5.23,.21,.04,.33,.52,.51,.8-.17,.24-.36,.48-.52,.73-.17,.26-.27,.53,0,.79,.04,.04,.14,.06,.2,.04,.37-.11,.38-.44,.37-.73,0-.3-.07-.6-.11-.89Zm166.87,358.67c-.84-.75-1.83-.22-2.72-.28-3.13-.23-3.13-.21-3.07-3.37,0-.24,0-.48,0-.72,0-10.31-.06-20.62,.04-30.93,.05-4.53-.61-8.86-2.21-13.11-.77-2.05-1.82-4.12-1.66-6.43,.15-2.25-.67-4.32-1.55-6.2-1.44-3.1-2.37-6.23-2.43-9.63-.02-1.04-.22-2.04-.54-3.05-.76-2.43-1.27-4.96-2.13-7.35-.96-2.66-.87-5.51-1.7-8.18-1.47-4.7-2.13-9.48-1.81-14.41,.07-1.11-.01-2.24,.03-3.36,.05-1.32-.16-2.55-1.04-3.59-2.08-2.45-2.6-5.4-2.78-8.47-.12-2.02-.65-3.92-1.65-5.7-.69-1.25-1.55-2.48-1.58-3.97-.03-1.41-.74-2.14-1.97-2.68-1.49-.65-2.9-1.58-3.37-3.22-.89-3.07-2.33-5.95-2.92-9.11-.25-1.35-.72-2.66-1.15-4.22-.69,1.06-.43,1.85-.22,2.6,1.37,4.86,1.88,9.88,2.75,14.83,.71,4.01,.55,8.13,1.66,12.09,2.29,8.23,2.82,16.66,2.59,25.16-.04,1.52-.09,3.04-.16,4.55-.34,7.71,.97,15.29,1.94,22.88,1.31,10.24,2.21,20.5,2.15,30.82-.02,3.86,.1,7.63,1.5,11.29,1.26,3.29-.13,6.34-3.35,7.88-1.16,.56-2.29,1.12-3.63,1.06-.93-.04-1.49,.54-1.06,1.36,1.2,2.3,1.13,5,2.39,7.25,.59,1.06,1.04,2.15,1.23,3.35,.53,3.39,.82,6.79,.81,10.22-.01,3.51,.07,7.02,.89,10.47,.13,.54,.22,1.1,.25,1.66,.46,7.97,.37,15.96,.95,23.93,.2,2.71,.21,5.39,.87,8.06,.45,1.84,.97,3.73,.83,5.67-.22,3.2,.68,6.3,.75,9.48,.02,.89,.57,1.18,1.23,.58,1.35-1.21,3.01-1.73,4.65-2.25,1.2-.38,1.67-1.08,1.69-2.27,.03-1.37,.2-2.72,.94-3.92,1-1.62,1.47-3.45,1.35-5.27-.17-2.55,.73-4.82,1.34-7.18,.36-1.41,.4-1.45-1.07-1.23-.39,.06-.79,.27-1.11-.1-.32-.38-.1-.74,.14-1.07,1.53-2.12,2.1-4.14-.55-5.9-.34-.22-.38-.72-.02-1.05,.35-.34,.72-.19,1.08,.06,.72,.5,.77,1.38,1.18,2.05,.22,.35,.53,.72,.95,.47,.42-.25,.23-.69,.04-1.06-.93-1.8-1.61-3.64-1.14-5.73,.13-.58-.23-1.07-.54-1.54-.52-.8-.45-1.51,.63-1.43,2.44,.18,2.97-1.51,3.31-3.28,.4-2.05,.55-4.15,2.59-5.39,.21-.13,.21-.47,0-.61-.17-.11-.48-.17-.65-.09-.57,.27-1.1,.65-1.68,.91-.37,.17-.83,.13-1.08-.25-.25-.37-.14-.82,.15-1.1,.52-.48,1.1-.92,1.69-1.32,2.26-1.51,4.08-3.31,4.56-6.16,.16-.97,.76-1.76,1.57-2.34,.5-.36,.93-.21,1.01,.44,.04,.31-.08,.63-.12,.95-.04,.41-.05,.85,.41,1,.52,.17,.68-.26,.81-.65,.08-.23,.11-.47,.18-.7,.24-.77,.79-1.22,1.57-1.27,.82-.05,.94,.66,1.23,1.24,.99,2,2.73,2.33,4.13,.63,1.01-1.24,2.9-2.26,1.86-4.43-.05-.11,.04-.32,.13-.45,.75-1.08,.15-1.76-.68-2.4-.59-.45-.9-1.03-.96-1.83-.16-1.93-.21-1.99-2.11-1.97-.76,.01-1.55-.48-2.4,.06,.57,.87,.87,1.66-.69,1.57-1.64-.09-2.86,.85-4.11,1.72-.41,.29-.67,.95-1.45,.59-.08-2.21,2.25-2.88,3.02-4.68Zm16.23,66.88c.68-.04,1.97,0,3.23-.21,2.23-.36,4.1-1.28,4.88-3.65,.5-1.52,1.04-3.06,1.94-4.37,1.24-1.8,2.05-3.79,2.82-5.8,.51-1.33,.73-2.78,1.61-3.97,.42-.57,.25-1.21,.02-1.84-.52-1.42-1.81-2.2-2.74-3.28-.35-.4-.87-.22-1.31,.07-2.16,1.42-4.59,2.16-7.07,2.83-1.98,.53-4.01,.98-5.54,2.62-.7,.75-1.78,1.03-2.87,1.03-3.21,0-6.37-.47-9.44-1.34-3.05-.86-3.21-.9-4.61,1.9-.14,.28-.24,.59-.37,.89-2.3,5.12-3.4,10.65-5.49,15.84-.39,.96,.21,1.41,.85,1.98,2.49,2.23,5.07,4.39,6.45,7.6,.43,1.01,1.22,1.86,1.85,2.79,.56,.84,1.19,.83,1.63-.03,.9-1.77,1.76-3.56,2.56-5.38,1.3-2.99,3.07-5.52,6.07-7.08,1.62-.84,3.29-.39,5.54-.57ZM52.04,468.23c-1.33-1-2.58-1.2-3.82-1.39-.71-.11-1.51-.07-1.81-.9-.36-1-1.13-.93-1.95-.93-3.03,0-5.69,1.35-8.47,2.27-.06,.02-.04,.28-.06,.43,.73,.89,1.62-.16,2.56,.2-.57,.85-1.38,1.16-2.17,1.48-.47,.19-1.02,.16-1.23-.38-.69-1.74-1.79-1.08-2.92-.59-1.27,.55-2.36,1.34-3.32,2.31-.96,.97-1.08,1.79,0,2.34,1.63,.83,1.7,2.1,1.68,3.58,0,.63,.14,1.27,.28,1.89,.36,1.53,.14,3.01-.22,4.5-.26,1.07-.81,1.94-1.86,2.34-2.32,.89-3.52,2.52-3.61,5.02-.02,.57-.23,1.12,.26,1.55,.56,.51,1.21,.4,1.76,.01,.79-.55,1.55-1.14,2.26-1.77,.78-.68,1.74-.92,2.34-.14,1.31,1.7,3.27,3.08,3.29,5.55,0,1.08,.59,1.39,1.55,1.28,1.12-.13,1.91-.7,2.39-1.74,1.25-2.67,2.46-5.38,5.44-6.64,.14-.06,.26-.18,.38-.29,.48-.47,.73-1.05,.76-1.71,.03-.75-.65-.79-1.1-1.08-1.51-1-1.54-1.58,.08-2.54,.99-.59,1.48-1.17,.94-2.29-.32-.65-.03-1.19,.19-1.81,.68-1.94,1.58-3.89,2.67-5.51,1.15-1.69,1.01-4.27,3.69-5.06ZM152.67,196.9c.14,2.95,.11,5.39-.07,7.85-.58,7.74-2.12,15.35-2.92,23.07-.66,6.35-1.23,12.71-2.24,19.03-.83,5.2-1.03,10.49-1.58,15.74-.89,8.58-1.74,17.16-3.03,25.7-.2,1.34-.3,2.71-.25,4.06,.19,4.47,.35,8.95,.73,13.4,1.1,12.83,1.93,25.68,1.53,38.56-.28,9.34-.31,18.69-.96,28.04-.66,9.56-.78,19.17-.52,28.77,.18,6.39,.07,12.79,.22,19.19,.18,8,.04,15.99-.16,23.98-.03,1.26,.43,2.62-.3,3.77-.92,1.44,1.04,2.48,.39,3.85-.14,.29,.1,.63,.46,.72,.48,.12,.73-.2,.91-.58,.22-.47,.09-.94-.02-1.41-.24-.95-.14-1.92-.03-2.86,.6-5.41,.78-10.82,.61-16.27-.29-9.51-.27-19.03-.46-28.54-.12-5.75-.24-11.51-.19-17.26,.05-6.39,.94-12.74,1.02-19.13,.11-9.03,.47-18.06,.81-27.08,.09-2.41-.37-4.79-.16-7.18,.26-2.97,.14-5.92-.26-8.85-.27-1.99-.45-3.97-.35-5.98,.23-4.34-.58-8.59-.99-12.88-.35-3.73-1.24-7.44-.69-11.21,.33-2.29,.58-4.57,.63-6.89,.07-3.37,1.15-6.58,1.47-9.93,1.38-14.16,2.96-28.29,4.47-42.44,.41-3.89,.72-7.8,1.24-11.68,1-7.46,1.42-14.96,1.74-22.47,.04-.89,.28-1.92-1.04-3.07Zm47.84,40.88c.45,2.28,.25,4.43,.4,6.56,.61,8.93,1.54,17.83,2.41,26.73,.93,9.53,1.9,19.05,1.06,28.7-.52,5.95-.07,11.98-.02,17.97,.12,12.47,1.2,24.9,1.54,37.36,.12,4.3,.87,8.6,.89,12.9,.02,5.59,.76,11.14,.73,16.74-.05,9.19,.71,18.36,.73,27.56,.02,9.03,.33,18.06,.54,27.08,.01,.64-.34,1.7,.73,1.7,1.02,0,.74-1.01,.76-1.69,.1-2.57-.59-5.07-.61-7.62-.07-8.47-.45-16.93-.21-25.4,.05-1.91,.06-3.83-.02-5.75-.21-4.47-.55-8.93-.72-13.4-.1-2.64-.08-5.27-.63-7.87-.52-2.44-.51-4.92-.49-7.4,0-.72,.05-1.45-.03-2.16-.6-5.08-.52-10.2-.81-15.3-.31-5.5-.29-11.01-.46-16.52-.1-3.19-.33-6.38-.4-9.58-.12-5.59-.24-11.19-.23-16.78,0-4.87-.41-9.73-.02-14.62,.46-5.73,.42-11.5,.24-17.25-.13-4.15-.47-8.29-.73-12.44-.04-.55-.2-1.1-.25-1.65-.46-4.61-1.25-9.18-1.49-13.81-.21-3.91-.43-7.82-1.02-11.7-.17-1.08-.46-1.96-1.86-2.37Zm31.8-32.86c-.57,.06-1.45,.08-2.31,.26-1.21,.24-2.27,.78-2.91,1.92-.54,.96-.13,1.75,.97,1.86,.75,.08,1.4-.24,2.05-.56,.68-.34,1.01-1,1.48-1.53,.3-.33,.71-.4,1.07-.14,.37,.27,.39,.71,.24,1.08-.11,.27-.37,.51-.6,.71-1.63,1.41-3.3,2.77-4.88,4.21-.93,.85-1.65,2.1-3.02,.55-.25-.28-.75-.07-1.15,.03-3.85,.94-5.46,4.83-4.25,7.52,.58,1.29,.22,2.02-.93,2.75-.55,.35-1.18,.49-1.81,.57-1.84,.23-2.87,1.25-3.07,3.1-.08,.77-.52,1.79,.48,2.08,.86,.24,.99-.83,1.33-1.43,.04-.07,.07-.15,.11-.21,.66-.99,1.24-1.06,2.11-.24,1.39,1.29,1.36,2.29-.17,3.72-.55,.52-1.15,1.01-.5,1.79,.56,.67,1.25,.63,1.9,.09,.73-.62,1.5-1.2,2.16-1.89,1.68-1.77,1.66-1.79,.37-3.93-.78-1.3-.14-2.67,1.29-2.41,2.64,.48,4.62-.89,6.71-1.98,.86-.45,1.65-1.13,1.68-2.19,.04-1.47,.73-3.01-.34-4.41-.44-.58-.07-1.03,.32-1.47,1.15-1.31,2.89-2.04,3.68-3.71,.07-.14,.44-.23,.63-.19,.32,.08,.54,.35,.52,.71-.04,.79-.2,1.59-.15,2.38,.08,1.22,.66,1.53,2.22,1.49,1.08-.02,1.66-.43,1.6-1.57-.14-2.71-.19-5.41,.08-8.13,.18-1.79-.9-2.44-2.34-1.38-1.05,.77-1.95,.86-3.08,.55-.37-.1-.79-.02-1.5-.02Zm-62.15-85.54c.43,.89,.02,1.66-.05,2.41-.06,.69-.05,1.24,.65,1.62,1.22,.67,1.79,1.78,1.72,3.23,1.98-1.26,2.02-3.56,3.48-4.97,.63-.6,1.26-1.16,1.93-1.7,.33-.27,.4-.69,.2-1.09-.15-.3-.5-.65-.73-.45-1.32,1.08-2.32,1.14-2.98-.68-.06-.16-.58-.16-.89-.22-2.06-.4-2.13-.48-1.35-2.42,.28-.7,.6-1.39-.04-1.98-.63-.58-1.42-.66-2.24-.37-.52,.18-.97,.81-1.72,.37,.17-.32,.22-.61,.39-.7,1.05-.57,1.91-1.2,2.58-2.32,.93-1.55,3.77-2.15,5.54-1.47,.53,.2,.88,.24,1.28-.14,.36-.34,.8-.52,1.3-.55,1.67-.08,3.09-1.34,4.85-1.05,.31,.05,.64-.19,.67-.55,.03-.34-.21-.59-.53-.7-.22-.08-.46-.14-.69-.19-5.78-1.27-11.52-1.54-17.12,.81-1.16,.49-2.28,1.17-3.28,1.95-1.33,1.05-.74,2.62-.87,4.01-.16,1.65,1.54,1.83,2.06,2.96,.28,.61,1.13-.11,1.71-.29,1.34-.43,1.66-.19,1.3,1.13-.32,1.19-.65,2.4,0,3.48,.43,.71,.55,1.94,1.5,2,1.37,.09,.22-1.57,1.31-2.1Zm8.95,49.52c1.63-.06,2.6,1.1,1.8,2.62-.96,1.82-.49,2.93,1.04,3.97,.52,.35,.89,.91,1.33,1.37,.67,.7,1.29,.73,2.06,.07,1.44-1.26,2.97-2.43,3.9-4.15,.66-1.22,1.64-2.16,2.72-2.98,.83-.62,1.71-1.16,2.57-1.75,.39-.26,.88-.49,.79-1.07-.07-.49-.54-.54-.92-.59-1.58-.2-2.11-1.18-2.13-2.66,0-.7-.19-1.42-.37-2.11-.41-1.61-.88-1.85-2.29-1.13-3.41,1.72-6.65,3.69-9.12,6.68-.38,.46-.85,.66-1.42,.8-.6,.14-1.76-.35-1.62,.74,.11,.84,1.04,.3,1.65,.2Zm147.16,320.86c.64,.24,2.04-.66,2.32,.52,.31,1.31-1.18,1.43-2.14,1.68-1.18,.31-1.42,1.03-.82,1.96,1.36,2.08,1.08,4.21,.49,6.44-.62,2.31-.21,4.6,.54,6.82,.1,.3,.28,.61,.65,.62,.36,.01,.55-.26,.7-.55,1.08-2.15,1.04-4.62,1.99-6.81,.03-.06,.01-.17-.02-.23-.62-1.1-.14-2.47-.57-3.44-.8-1.82,.23-2.72,1.37-3.23,1.46-.66,2.92-1.04,3.04-2.99,.01-.17,.3-.4,.51-.47,1.73-.58,1.97-2.43,3.04-3.56,.34-.36,.42-.92,.23-1.36-.48-1.11-.63-2.29-.93-3.44-.28-1.08-1.39-1.59-1.96-.88-1.18,1.47-2.1,.87-3.18,0-.3-.24-.7-.39-1.08-.49-.91-.24-1.4,.29-1.07,1.2,.27,.75,.64,1.47,1.05,2.15,.58,.97,.51,1.8-.31,2.57-.91,.86-1.68,2.15-3.21,1.4-.93-.45-1.62-.47-2.34,.31-.44,.47-1.04,.24-1.59,.14-.34-.06-.69,0-.8,.33-.17,.47,.21,.72,.57,.89,1.04,.5,2.14,.61,3.51,.41ZM252.07,233.64c.25,0,.57,.01,.89,0,4.25-.23,6.44-2.79,6.18-6.99-.17-2.77-.16-5.55-.14-8.33,0-.9-.35-1.34-1.15-1.52-1.6-.36-2.76,.76-2.12,2.39,.83,2.11,.08,4.26,.58,6.35,.15,.64-.1,1.43-.32,2.1-.72,2.23-4.93,3.22-6.63,1.59-.48-.46-.74-1.04-.82-1.69-.09-.71-.15-1.43-.19-2.14-.1-1.99-.18-3.98-.28-5.97-.08-1.51-.47-1.86-1.87-1.77-1.21,.08-1.44,.37-1.43,1.94,.02,2.15,.06,4.3,.1,6.46,.02,1.28,.26,2.53,.65,3.76,.55,1.74,1.66,2.87,3.42,3.36,1,.28,2.01,.54,3.13,.47Zm11.93-3.17c-.11-2.44-.12-2.4,2.2-2.14,2.05,.23,3.77-.36,4.95-2.19,2.01-3.12,.49-7.02-3.12-7.94-1.79-.45-3.64-.1-5.46-.49-1-.21-1.81,.84-1.89,2.03-.28,4.05,.31,8.11-.23,12.16-.1,.74,.21,1.18,1.07,1.21,2.13,.09,2.58-.36,2.47-2.65Zm-169.83,109.6c-.16,0-.31,.01-.47,.02-.07,.38-.14,.77-.21,1.15-.93,5.28-1.2,10.63-1.69,15.95-.3,3.33-.49,6.69-.04,10.05,.41,3.01,.85,6.02,1.11,9.04,.23,2.62,.51,5.27,.14,7.89-1.32,9.19-1.62,18.45-2,27.71-.04,.85-.68,2.53,.25,2.5,1.52-.04,.8-1.73,.83-2.72,.19-5.42,.15-10.86,.89-16.25,.95-6.97,1.84-13.94,.83-21.01-.68-4.75-1.07-9.53-.73-14.34,.37-5.26,.74-10.52,1.07-15.78,.09-1.4,.01-2.81,.01-4.22Zm144.58-122.29s0,.04,0,.07c-.96,0-1.92,0-2.87,0-1.88,.01-2.07,.25-1.87,2.06,.13,1.19,.28,2.38,.3,3.57,.06,2.71,.04,5.42,.09,8.14,.02,1.37,.26,1.55,1.77,1.55,1.69,0,1.93-.19,1.92-1.65,0-1.04,0-2.08-.13-3.1-.15-1.22,.4-1.57,1.5-1.52,.79,.03,1.61,.08,2.38-.07,.92-.18,1.24-.96,1.22-1.82-.02-.97-.73-1.12-1.51-1.1-.8,.02-1.59,.08-2.39,.08-1.11,0-1.25-.77-1.26-1.63,0-.86,.34-1.38,1.26-1.37,.96,0,1.91,.04,2.87,.04,1.13,0,1.57-.64,1.49-1.7-.07-1.03-.54-1.62-1.67-1.57-1.03,.05-2.07,0-3.11,0Zm-46.07-143.55c-2.34-.12-2.53,.09-1.53,2.04,.36,.71,.46,1.32,.14,2.03-.7,1.54-.52,2.94,.69,4.18,.65,.67,.97,1.31-.29,1.74-.62,.21-.81,.81-.55,1.38,.4,.88,1.06,1.59,1.76,2.24,.31,.29,.83,.3,1.07-.07,.7-1.08,2.17-1.71,1.82-3.41-.27-1.31,.48-2.29,1.44-3.1,.43-.36,.9-.66,1.31-1.04,1.32-1.22,1.29-1.91-.26-2.91-.53-.34-.75-.64-.8-1.29-.11-1.58-.85-2.14-2.46-2.06-.79,.04-1.54,.45-2.34,.26Zm-61.5,128.62c-.41,1.7-.88,3.35-1.21,5.03-1.79,9.09-2.64,18.31-3.77,27.49-1.25,10.21-1.91,20.49-2.25,30.79-.09,2.77,.69,5.55-.09,8.31-.09,.32,.09,.7,.44,.73,.53,.04,.58-.38,.57-.81-.02-1.67-.1-3.34-.02-5,.47-9.48,.96-18.96,1.83-28.41,.41-4.45,.65-8.92,1.36-13.32,1.29-7.95,1.81-16.01,3.59-23.88,.07-.3,.13-.62-.45-.92Zm228.15,355.66c-.09-.83,.29-1.81-.81-2.29-2.5-1.09-5.23-1.28-7.84-1.96-.33-.09-.76,.18-1.13,.3-1.34,.42-2.39,1.26-3.33,2.27-.72,.78-1.49,1.62-.96,2.74,.49,1.04,1.53,.54,2.37,.52,3.33-.06,6.67-.56,10,.24,1.27,.31,1.71-.27,1.71-1.81ZM39.58,502.46c-.11,.55-.2,1.11,.2,1.42,1.12,.84,1.08,1.96,1.13,3.19,.05,1.25,1.27,1.8,2.24,1.05,1.32-1.02,2.72-1.95,3.84-3.22,.64-.72,1.01-1.53,.5-2.39-.57-.96-.94-2.02-1.5-2.97-1.55-2.59-4.4-2.45-5.84,.19-.49,.89-.35,1.87-.57,2.72Zm-5.97-2.08c-.43,.21-.33,.56-.41,.85q-.65,2.4,1.38,3.74c.13,.09,.27,.17,.4,.27,1.68,1.26,1.76,1.83,.48,3.49-1.07,1.4-1.07,1.98,.39,2.84,1.03,.61,1.93,1.11,1.74,2.51-.04,.32,.19,.62,.48,.77,.95,.49,1.1,1.23,.88,2.21-.14,.64,.24,1.08,.92,1.14,.8,.07,1.38-.37,1.84-.95,.48-.61,.33-1.28-.21-1.71-.92-.75-1.11-1.66-1-2.76,.04-.37-.18-.77-.26-1.16-.55-2.7-2.31-4.86-3.38-7.34-.64-1.48-1.52-3.18-3.24-3.91ZM209.72,53.57c-.63,1.09-.9,1.81-1.07,2.59-.37,1.74,.14,3.67-1.24,5.19-.25,.28-.07,.79,.12,1.14,.46,.87,.49,1.83,.62,2.78,.18,1.29,.77,2.43,1.55,3.45,.65,.84,1.38,.79,1.81-.18,.41-.94,.62-1.97,.96-2.95,.37-1.06,.31-2.04-.47-2.9-.69-.76-.77-1.69-.91-2.65-.3-2.03-.4-4.1-1.36-6.48Zm4.08,23.43c.02-.4,.07-.8,.06-1.19-.01-.64,0-1.35-.8-1.54-.69-.16-1.13,.41-1.23,.9-.48,2.23-1.64,4.16-2.5,6.22-.12,.28-.18,.65-.11,.94,.52,2.08-.16,4.11-.27,6.16-.03,.55-.11,1.12-.04,1.66,.07,.51,0,1.29,.71,1.34,.76,.06,1.05-.66,1.15-1.29,.08-.46-.06-.94-.07-1.42-.04-1.14,.08-2.34,.74-3.21,1.94-2.57,1.56-5.72,2.38-8.57Zm186.41,464.41c-.08-1.14-.57-1.75-1.54-2.02-2.4-.65-4.72-.11-7.02,.53-.66,.18-1.06,.7-1.1,1.4-.05,.76,.41,1.16,1.08,1.35,1.07,.3,2.06,.73,3.01,1.35,1.06,.69,4.57-.53,5.16-1.67,.18-.34,.3-.72,.4-.95Zm-22.27-.83c-1.42-.46-2.94,.38-4.54,.42-1.25,.04-2.21,.88-2.69,2.1-.26,.66-.2,1.29,.5,1.65,.64,.33,1.85-.27,1.78-1.03-.18-1.76,.65-1.4,1.67-1.02,2.03,.75,3.91,.23,5.72-.76,.28-.15,.61-.27,.54-.68-.06-.34-.33-.53-.63-.66-.7-.3-1.42-.08-2.34-.02ZM200.75,219.14c-.22,0-.44,0-.66,0-.03,1.53-.09,3.06-.08,4.59,.02,3.43,.06,6.85,.12,10.27,0,.45-.05,1.09,.61,1.1,.68,.01,.92-.55,.92-1.16,0-.39-.07-.79-.14-1.18-.28-1.49-.32-2.96-.18-4.49,.28-3.06-.46-6.07-.58-9.13Zm168.75,405.59c.78-.04,1.45,.07,1.65-.6,.19-.64-.29-1.08-.81-1.28-1.16-.45-2.04-1.98-3.63-.97-.34,.22-.72-.15-1.01-.44-.28-.28-.58-.54-.92-.73-.78-.43-1.53-.31-2.22,.24-.27,.21-.42,.5-.33,.83,.22,.81,.88,1.11,1.62,1.17,1.22,.1,2.28,.62,3.37,1.11,.79,.35,1.66,.5,2.28,.68ZM136.26,220.88c-.17,0-.35,0-.52,0-.08,2.9-.17,5.81-.25,8.71,0,.23,.07,.47,.13,.7,.12,.48,.33,.94,.88,.99,.55,.05,.84-.37,1.11-.77,.52-.77,.68-1.64,.47-2.52-.58-2.38-.84-4.84-1.82-7.12Zm114.28,4.89c0,.47,0,.95,0,1.42-.02,1.12,.68,1.55,1.65,1.61,1.07,.06,1.61-.54,1.61-1.59,0-.64,.17-1.24,.3-1.86,.34-1.6-.28-2.25-1.87-2.04-1.47,.19-1.82,.68-1.69,2.47ZM46.3,492.22c-.03-1.14-.93-1.78-1.92-1.31-.71,.34-1.39,.76-2.04,1.22-.76,.53-.82,1.33-.55,2.14,.24,.73,.72,1.25,1.56,1.22,1.4-.06,2.98-1.82,2.94-3.26Zm224.52,104.08c-.78,.55-.64,1.06-.52,1.49,.24,.92,.55,1.82,.85,2.73,.6,1.81,1.21,3.61,1.82,5.41,.13,.39,.38,.75,.84,.69,.48-.07,.55-.51,.58-.92,.07-.82-.08-1.64-.5-2.3-1.38-2.15-2.16-4.56-3.07-7.1ZM55.6,472.4c1.97-.09,2.33-.34,2.28-1.52-.05-1.19-1.09-2.05-2.44-2.02-1.07,.02-1.58,.92-1.48,2.48,.07,1.13,.75,1.24,1.64,1.07ZM251.18,221.58c1.49,.02,2.39-.59,2.47-1.67,.08-1.11-.85-1.94-2.21-1.96-1.12-.02-1.75,.69-1.82,2.05-.06,1.12,.39,1.57,1.56,1.59Zm81.67,334.87c.14,.02-.17-.04-.49-.05-.41-.02-.83,.05-.97,.5-.12,.42,.16,.74,.43,1.04,.36,.39,.83,.49,1.31,.36,1.45-.39,2.9-.78,4.42-.88,.84-.06,.96-.73,.32-1.35-.55-.53-1.18-.9-1.89-.32-.8,.65-1.7,.81-3.14,.7ZM177.44,101.88c-.12-.13-.23-.38-.42-.44-.76-.27-1.4-.69-2.01-1.22-.49-.43-3.62,.67-3.93,1.3-.21,.44-.05,.81,.38,.94,.36,.12,.78,.1,1.17,.1,1.45,0,2.86-1.02,4.37-.17,.17,.1,.4-.18,.44-.52Zm69.9,488.98c.06-1.15,.84-2.06,.37-2.99-.59-1.17-1.08-2.3-.92-3.64,.02-.16-.22-.41-.39-.53-.22-.15-.53-.06-.63,.14-.45,.92-1.26,2.36-.81,2.81,1.18,1.2,.94,3.05,2.39,4.21Zm102.06-103.95c.16-1.33,.08-2.68-.99-3.49-1.65-1.25-3.07-2.8-4.9-3.82-.4-.22-.85-.73-1.2-.15-.28,.47,.19,.88,.6,1.16,1.06,.72,2.13,1.41,3.19,2.12,1.52,1.03,3,2.09,3.3,4.17ZM187.69,70.14c1.68,1.09,3.41,1.7,5.35,.9,.44-.18,.93-.34,.84-.96-.08-.48-.54-.5-.9-.62-1.84-.62-3.52,.21-5.28,.68Zm200.05,548.96c-.72-2.96-5.4-6.09-8.94-5.86,3.4,1.73,6.62,3.1,8.94,5.86ZM170.65,20.03c-1.58-3.62-4.79-6.82-7.06-6.98,2.57,2.27,4.9,4.52,7.06,6.98Zm208.36,539.22c.3-2.25-.44-4.34-.88-6.48-.12-.57-.51-1.11-1.17-.86-.71,.27-.43,.92-.24,1.42,.75,1.98,1.52,3.95,2.28,5.92Zm-103.97,35.66c1.37,3.52,2.36,7.16,3.93,10.59-.75-3.74-1.88-7.34-3.93-10.59Zm-35.5-454.83c-1.12,.62-5.89,5.99-6.39,7.4,2.22-2.11,4.34-4.32,6.44-6.55,.19-.2,.27-.59-.05-.85Zm126.44,411.42c-2.22-1.14-5.49-.03-6.95,2.43,2.58-.8,4.53-2.33,6.95-2.43Zm-20.72-74.79c1.2,1.34,1.78,3.33,3.84,4.21,.3-3.04-2.29-3.15-3.84-4.21Zm15.49,87.1c-1.32-1.29-2.66-1.3-4.08-.86-.38,.12-.74,.33-.73,.81,.01,.52,.43,.58,.83,.64,1.27,.19,2.51,.2,3.98-.58Zm-37.92-80.59c-.78,.07-1.21,.61-1.52,1.29-.17,.38-.23,.8,.1,1.11,.68,.63,1.14-.09,1.68-.32,.15-.06,.29-.14,.43-.2,.43-.19,1.01-.32,.87-.94-.17-.76-.9-.79-1.57-.93Zm-54.42,120.91c-.35,2.33,.39,4.36,1.47,6.31-.1-2.2-.18-4.4-1.47-6.31Zm91.21-55.14c2.33,.37,5.48,.19,6.39-.23-2.25-.9-4.34-.58-6.39,.23ZM197.41,95.65c-.06-.85-1.22-1.88-2.16-1.9-.46-.01-.77,.22-.79,.68-.03,.6,1.74,2.2,2.33,2.1,.45-.08,.61-.45,.62-.88Zm74.37,473.54c-1.38-1.32-2.58-2.94-4.7-2.97,1.15,1.67,3.01,2.19,4.7,2.97Zm95.63,.19c-.99,1.5-.77,2.75-.61,3.99,.04,.33,.31,.57,.65,.58,.36,0,.59-.29,.59-.61-.02-1.21,.25-2.48-.62-3.95Zm-40.34,8.48c.27,.07,.45-.07,.6-.26,.5-.59,1.01-1.18,1.49-1.79,.25-.31,.42-.69,.04-1.03-.35-.31-.76-.22-1.07,.04-.73,.6-1.35,1.3-1.47,2.3-.04,.31,.05,.61,.4,.74Zm-22.07,1.3c-.7,.05-1.26,.91-1.17,1.81,.05,.55,.17,1.15,.88,1.19,.66,.04,1.23-1.06,1.1-2.06-.07-.51-.26-.91-.81-.94Zm70.54-31.77c.05,.41,.08,.8,.17,1.17,.08,.33,.34,.5,.68,.52,.34,.02,.61-.14,.79-.4,.39-.57,.02-2.48-.56-2.79-.4-.21-.79-.06-.93,.37-.12,.36-.11,.76-.15,1.13Zm-5.08,18.76c-.92-.49-1.79-1.04-2.84-.83-.5,.1-.86,.47-.79,1,.07,.57,.55,.81,1.04,.61,.83-.33,1.71-.49,2.59-.78Zm-116.65,19.83c-.73-.61-1.27-1.06-1.8-1.5-.38-.32-.78-.59-1.21-.13-.5,.52-.23,.99,.18,1.43,.79,.85,1.7,.46,2.83,.21Zm-54.05-374.01c-.29-1.95,1.24-3.83,0-5.83v5.83Zm95.8,358.32c.07,.35-.15,.91,.45,1.12,.35,.12,.58-.14,.76-.4,.35-.51,.86-.98,.55-1.69-.17-.39-.51-.61-.94-.56-.91,.11-.76,.84-.82,1.53Zm-1.62-12.62c-.06-.13-.09-.31-.2-.4-.38-.31-.87-.54-1.29-.2-.52,.42-1.36,.54-1.46,1.38-.03,.26,.21,.47,.44,.45,.86-.06,1.69-.25,2.38-.8,.1-.08,.09-.28,.13-.43Zm61.5-71.84c-.06-.39-.22-.8-.55-.7-.67,.22-1.35,.57-1.36,1.43,0,.43,.29,.77,.76,.72,.91-.09,1.13-.73,1.14-1.46Zm-246.3,203.23c1-.03,1.56-.49,2.12-.94,.31-.25,.67-.59,.42-1-.26-.44-.74-.27-1.06-.04-.64,.45-1.33,.89-1.49,1.98ZM27.61,484.12c.69-.37,.92-1.03,.84-1.78-.04-.45-.41-.75-.85-.54-.76,.36-.94,1.04-.74,1.82,.08,.34,.33,.53,.75,.5Zm299.25-2.77c-.1-.52-.15-1.17-.92-1.11-.54,.04-.84,.47-.82,1.01,.02,.58,.45,.82,.97,.85,.47,.03,.73-.24,.77-.74Zm-115.72-34.58c.05,1.03-.29,1.96,.37,2.77,.17,.21,.5,.16,.58-.08,.34-.94,.06-1.8-.41-2.62-.02-.04-.14-.02-.54-.07ZM189.69,57.72c.08-.39-.03-.74-.36-.79-.88-.11-1.21,.55-1.42,1.24-.1,.33,.11,.64,.48,.64,.73,0,1.09-.51,1.3-1.09Zm215.02,555.32c-.47,1.28,.3,1.98,.44,2.8,.05,.26,.33,.35,.58,.24,.32-.14,.54-.47,.4-.75-.35-.68-.8-1.32-1.41-2.29Zm-8.61,7.32c0,1.1-.37,2.26,.61,3.66,.1-1.57,.03-2.65-.61-3.66Zm-112.22-307.11c.5-1.25,.72-2.48-.31-3.58-.23,1.21-.2,2.41,.31,3.58ZM218.77,86.32c-.3,.78-1.23,1.39-.54,2.45,.05,.07,.37,.09,.41,.03,.53-.71,.79-1.49,.5-2.37-.01-.04-.14-.04-.37-.11Zm-39.56,9.58c.09,1.47,.25,1.92,.74,2.02,.12,.02,.34-.06,.39-.16,.39-.82-.22-1.27-.7-1.76-.04-.04-.14-.04-.43-.1Zm164.4,390.32c.38-.03,.62-.25,.64-.57,.03-.66-.15-1.26-.94-1.33-.37-.03-.5,.34-.48,.65,.04,.55,.16,1.08,.78,1.25Zm-134.05-34.88c-.47,.03-.82,.22-.75,.71,.07,.57,.57,.72,1.05,.78,.43,.05,.89-.15,.88-.58-.02-.68-.64-.81-1.18-.91Zm146.47,98.59c-1-.19-1.73,.28-2.68,1.08,1.36,.2,2.02-.44,2.68-1.08Zm-260.38,41.39c.44,.54,.96,.82,1.68,.43,.09-.05,.16-.31,.11-.39-.41-.61-.98-.61-1.59-.35-.05,.02-.08,.12-.19,.3Zm218.91-46.98c-.61-1.22-.95-1.97-2.04-2.56,.53,1,.84,1.75,2.04,2.56ZM137.39,210.09q-.87,1.32-.71,2.4c.34-.76,.82-1.38,.71-2.4Zm87.54,19.86c-.04-.44-.24-.81-.68-.81-.51,0-.59,.43-.54,.84,.05,.4,.21,.82,.66,.82,.51,0,.52-.47,.56-.85Zm-62.12-126.62c-.35,.06-.57,.28-.58,.62-.02,.47,.23,.75,.71,.67,.35-.06,.5-.35,.46-.7-.04-.34-.23-.56-.59-.59Zm205.32,446.76c.32,1.19,.97,1.38,1.92,1.45-.4-.87-.83-1.34-1.92-1.45ZM31.77,498.14c.28,0,.45-.15,.46-.41,.02-.35-.16-.62-.51-.68-.27-.05-.45,.14-.45,.41,0,.34,.16,.59,.5,.69Zm320.95-14.84c-.71,.17-.87,.66-.86,1.23,0,.24,.14,.43,.46,.43,.34-.48,.55-1.01,.4-1.67Zm24.88,129.05c-.64-.51-1.16-.66-2.01-.16,.75,.44,1.26,.67,2.01,.16Zm-122.02-50.27c.45-.15,.85-.43,.87-.94,.02-.4-.37-.45-.69-.37-.47,.13-.88,.37-.73,.97,.06,.24,.28,.34,.55,.34ZM93.31,330.04c0,.52,.34,.64,.59,.78,.33,.18,.77,.42,.96-.12,.13-.36-.24-.54-.54-.67-.29-.12-.59-.24-1.02,0Zm80.99-186.35c-.05-.25-.19-.42-.45-.44-.25-.01-.45,.13-.46,.38-.02,.35,.19,.56,.54,.53,.25-.02,.37-.22,.37-.47Zm-27.72-36.78c-.35,.1-.51,.35-.4,.68,.06,.18,.28,.41,.45,.44,.37,.05,.54-.23,.53-.57-.01-.34-.21-.55-.58-.55Zm267.5,491.18c-.41,.42-.31,.73-.14,.99,.18,.28,.22,.82,.81,.54,0-.57-.11-1.08-.67-1.54Zm4.69,4.26c.02,.27,.14,.5,.43,.4,.31-.11,.47-.42,.48-.76,0-.27-.17-.48-.45-.4-.35,.1-.41,.44-.45,.76ZM176.56,170.68c-.27-.05-.53,.04-.41,.3,.11,.25,.39,.44,.65,.59,.19,.11,.53,.09,.53-.19,0-.46-.44-.55-.76-.7Zm82.66,391.3c-.06-.39-.21-.75-.73-.69-.26,.03-.39,.27-.35,.52,.07,.41,.23,.8,.73,.75,.25-.03,.33-.29,.35-.58Zm44.14,50.05c.28-.02,.47-.18,.42-.44-.04-.19-.22-.41-.4-.49-.22-.1-.46,.04-.5,.3-.07,.36,.14,.56,.49,.63Zm93.96-23.47c-.39-.02-.58,.2-.62,.54-.01,.13,.09,.35,.2,.39,.36,.15,.62-.05,.72-.39,.07-.24-.04-.45-.3-.54Zm-97.31-31.34c.73-.32,.8-.85,.91-1.6-.85,.43-1.18,.85-.91,1.6ZM163.93,16.32c-.42-.43-.6-1.05-1.34-.88,.38,.35,.69,.78,1.34,.88Zm-3.15,.82c-.09-.66-.49-.92-1.1-.87-.08,0-.23,.27-.19,.33,.29,.48,.65,.83,1.29,.54ZM419.61,598c.26-.03,.42-.2,.46-.44,.05-.34-.08-.63-.41-.71-.36-.08-.57,.16-.57,.5,0,.34,.19,.56,.53,.65Zm-56.68,42.21c.64,.95,1.18,1.23,2.03,1.14-.45-.67-.99-.92-2.03-1.14ZM52.39,471.08c-.11,.08-.3,.14-.32,.24-.06,.25,.11,.44,.35,.48,.1,.02,.3-.12,.32-.22,.06-.25-.11-.41-.34-.49Zm281.61-4.11c.12-.36-.1-.47-.34-.52-.24-.05-.51,0-.59,.24-.09,.26,.12,.43,.37,.49,.25,.06,.46-.02,.57-.21Zm-37.32,91.16c-.07-.26-.25-.4-.5-.41-.27-.01-.47,.13-.46,.41,.02,.36,.23,.59,.6,.52,.24-.05,.37-.26,.36-.52ZM173.66,110.73c-.06-.12-.1-.32-.2-.36-.26-.1-.44,.07-.47,.31-.02,.11,.09,.32,.19,.36,.26,.1,.41-.07,.48-.31Zm114.05,458.8c.01-.21,.02-.44,.03-.66,0-.21-.15-.33-.18-.25-.08,.2-.07,.44-.08,.66-.02,.21,.06,.3,.24,.25Zm34.28-15.29c-.18,0-.29,.12-.21,.28,.09,.19,.24,.38,.4,.52,.15,.13,.33,.05,.31-.13-.04-.3-.17-.57-.5-.67Zm-226.09-11.89c.07-.12,.2-.24,.19-.36-.02-.25-.19-.4-.43-.24-.08,.05-.12,.28-.08,.39,.04,.1,.21,.14,.32,.21Zm319.91,63.75c-.03-.13-.03-.35-.1-.38-.25-.11-.41,.07-.46,.29-.03,.12,.02,.34,.09,.37,.24,.1,.39-.06,.48-.29ZM172.17,12.74c-.13-.3-.41-.44-.71-.5-.08-.02-.3,.16-.29,.22,.06,.37,.38,.43,.68,.5,.19,.04,.3-.04,.32-.22Zm126.2,587.65c-.18,.02-.27,.14-.22,.32,.04,.14,.11,.35,.21,.37,.32,.08,.37-.18,.31-.4-.03-.11-.19-.19-.3-.29ZM154.88,111.25c-.1,.09-.26,.18-.27,.28,0,.11,.11,.3,.21,.32,.26,.05,.41-.12,.36-.37-.02-.1-.2-.16-.3-.24Zm120.49,439.52c.25-.09,.35-.29,.3-.52-.02-.1-.2-.26-.28-.24-.26,.05-.35,.28-.3,.51,.02,.1,.18,.17,.27,.25ZM189.53,67.14c-.35,0-.48,.18-.46,.42,.01,.13,.13,.31,.25,.35,.25,.09,.45-.06,.49-.32,.04-.25-.09-.42-.28-.45Zm222.05,537c.29,.07,.43-.09,.45-.33,0-.11-.1-.32-.19-.34-.24-.06-.43,.09-.44,.34,0,.11,.12,.23,.18,.33Zm-108.99,4.61c-.06-.13-.09-.32-.19-.38-.09-.05-.34,.03-.37,.11-.11,.23-.02,.46,.25,.51,.09,.01,.21-.16,.31-.24Zm106.31,.98c.02-.34-.13-.51-.4-.48-.12,.01-.27,.17-.31,.29-.09,.24,0,.47,.27,.52,.26,.05,.4-.15,.45-.33Zm2.59,.67c.25-.05,.47-.17,.48-.44,0-.29-.2-.43-.46-.36-.13,.03-.27,.18-.32,.31-.09,.25,.02,.44,.31,.49Zm-14.26,.36c-.09,.11-.24,.21-.25,.32-.01,.12,.1,.34,.18,.36,.28,.05,.4-.17,.36-.41-.02-.1-.19-.18-.29-.26ZM26.32,474.02c.14-.11,.34-.22,.46-.39,.14-.19,.13-.46-.19-.4-.18,.03-.33,.27-.46,.44-.11,.15-.04,.28,.2,.34Zm68.97,52.45c.03-.28-.11-.47-.38-.37-.18,.06-.36,.26-.45,.44-.09,.2-.02,.47,.23,.49,.34,.02,.5-.26,.59-.56Zm307.93,91.52c.32,.06,.47-.11,.53-.34,.06-.24-.03-.47-.27-.56-.28-.11-.42,.09-.47,.34-.05,.24,.02,.45,.21,.56Zm-176.12,20.73c-.39-.26-.61-.19-.56-.09,.09,.18,.29,.33,.48,.43,.08,.05,.25-.05,.37-.08-.16-.15-.32-.29-.29-.26Zm32.71-74.39c-.08-.23-.24-.37-.47-.28-.1,.04-.19,.23-.19,.35-.01,.23,.12,.43,.38,.4,.25-.03,.32-.24,.29-.47Zm-27.66,76.56c-.2,0-.33,.15-.22,.27,.15,.15,.38,.24,.6,.29,.12,.03,.27-.09,.41-.14-.16-.33-.48-.35-.78-.42Zm-119.53,7.11c-.11,.07-.21,.14-.32,.2,.09,.1,.17,.25,.28,.28,.21,.05,.45,.02,.39-.29-.02-.08-.23-.13-.35-.19Zm288.28-38.97c.31,.04,.45-.13,.48-.36,.02-.12-.05-.3-.15-.37-.21-.14-.4-.04-.48,.19-.08,.22-.03,.42,.15,.54Zm-137.77-36.7c-.11,.09-.28,.17-.3,.28-.02,.1,.1,.31,.2,.34,.26,.08,.44-.06,.4-.33-.02-.11-.2-.19-.3-.28Zm87.78-83.04c.11,.09,.21,.17,.32,.25,0,0,.14-.12,.13-.16-.04-.13-.09-.31-.19-.35-.16-.06-.27,.07-.26,.26Zm51.99,121.32c-.26,.12-.3,.34-.21,.56,.04,.08,.26,.17,.35,.13,.23-.09,.32-.32,.21-.54-.04-.09-.24-.11-.35-.15Zm-49.77-133.74c-.15,.04-.21,.15-.15,.31,.02,.06,.11,.16,.13,.15,.11-.05,.21-.13,.31-.2-.09-.09-.19-.18-.29-.27Zm-41.25,31.22c-.13-.14-.26-.14-.37,.02-.03,.05-.04,.15-.01,.2,.03,.05,.12,.1,.18,.09,.19-.02,.26-.14,.2-.3ZM188.66,6.95c-.1,.09-.2,.18-.3,.27,.1,.1,.19,.26,.3,.29,.07,.02,.19-.16,.29-.24-.1-.1-.2-.21-.3-.31Zm111.99,597.89c-.07-.12-.11-.29-.21-.34-.08-.04-.31,.05-.33,.12-.08,.23,.04,.42,.28,.46,.07,.01,.17-.15,.26-.24Zm107.36,8.38c-.11-.07-.24-.22-.32-.2-.1,.03-.23,.2-.23,.31,0,.25,.15,.41,.41,.26,.09-.05,.1-.24,.15-.36Zm-49.57-8.08c-.1-.1-.19-.27-.29-.29-.11-.01-.31,.12-.34,.22-.07,.28,.13,.42,.38,.37,.1-.02,.17-.2,.25-.3Zm43.07,14.61c-.08-.15-.12-.33-.22-.38-.07-.04-.31,.06-.34,.14-.08,.23,.04,.43,.28,.47,.08,.01,.19-.15,.28-.23Zm-299.02-.05c-.13,.04-.34,.05-.38,.13-.04,.1,.02,.33,.11,.39,.21,.13,.46,.12,.52-.18,.02-.09-.16-.22-.25-.34Zm174.88-82.2c.08-.1,.21-.21,.21-.32,0-.18-.15-.24-.31-.14-.06,.03-.11,.1-.13,.17-.04,.18,.04,.28,.22,.29Zm9.65,.63c-.16-.04-.29-.09-.43-.11-.19-.03-.34,.08-.27,.2,.06,.09,.26,.12,.39,.11,.1,0,.2-.12,.31-.2Zm121.6,26.68c-.11-.07-.21-.14-.32-.21-.05,.12-.16,.26-.13,.35,.03,.1,.2,.15,.31,.22,.05-.12,.09-.24,.14-.36Zm1.47,41.52c-.1-.07-.23-.21-.31-.19-.11,.03-.26,.18-.26,.28,0,.26,.18,.39,.42,.27,.09-.04,.1-.24,.15-.36Zm3.56,1.25c-.07,.12-.15,.25-.22,.37,.13,.06,.29,.19,.38,.15,.11-.05,.16-.23,.24-.36-.13-.05-.26-.11-.39-.16Zm-303.01,37.3c-.13-.04-.25-.09-.38-.13,0,.12-.03,.25-.01,.37,0,.03,.13,.06,.19,.05,.18-.01,.25-.12,.2-.29Zm6.12,.82c-.18-.14-.27-.28-.36-.28-.2,0-.4,.09-.6,.13,.08,.09,.16,.24,.24,.24,.2,.01,.4-.05,.72-.1Zm131.58-70.19c-.13-.3-.31-.55-.68-.45-.08,.02-.18,.27-.15,.38,.08,.32,.31,.54,.66,.46,.08-.02,.11-.25,.16-.39Z"/>
      <path class="cls-3" d="M137.72,85.42c-1.02-1.07-1.27-2.29-.81-3.66,.13-.37,.35-.74,.82-.7,.45,.04,.64,.39,.75,.78,.24,.82-.07,1.54-.39,2.26-.18,.41,.02,.93-.38,1.32Z"/>
      <path class="cls-3" d="M132.22,71.89c-.57-.48-.36-1.16-.43-1.76-.07-.57-.02-1.19,.69-1.31,.69-.12,1.24,.27,1.61,.82,.45,.68-.12,1.01-.57,1.32-.43,.3-.58,.99-1.29,.94Z"/>
      <path class="cls-3" d="M60.07,499.5c-.06,.31-.23,.52-.49,.45-.44-.12-.58-.51-.58-.93,0-.27,.17-.48,.45-.39,.42,.13,.6,.48,.62,.87Z"/>
      <path class="cls-3" d="M57.61,486.93c.02,.26-.08,.48-.33,.52-.38,.06-.56-.2-.56-.54,0-.26,.16-.45,.43-.43,.25,.02,.4,.2,.46,.45Z"/>
      <path class="cls-3" d="M61.67,503.47c-.02,.27-.14,.47-.43,.38-.33-.1-.48-.4-.53-.71-.04-.28,.15-.45,.43-.37,.32,.1,.49,.36,.54,.69Z"/>
      <path class="cls-3" d="M315.31,471.88c-.54,1.43-.16,2.59-.18,3.76-.01,.83,.12,1.98-1.18,1.86-1.11-.1-.91-1.06-.79-1.86,.11-.7,.13-1.42,.25-2.11,.14-.82,.52-1.47,1.9-1.64Z"/>
      <path class="cls-3" d="M307.58,487.73c-.42-1.36-.59-2.72,.49-4.4,.27,1.79-.15,3.09-.49,4.4Z"/>
      <path class="cls-3" d="M313.37,479.41c-.01,.63-.43,.95-.99,1.1-.34,.1-.65-.06-.71-.41-.12-.63,.21-1.05,.8-1.22,.41-.11,.75,.07,.9,.53Z"/>
      <path class="cls-3" d="M315.61,465.82c.19,0,.28,.11,.26,.29-.01,.07-.07,.14-.13,.18-.17,.12-.33,.07-.33-.13,0-.11,.13-.23,.21-.34Z"/>
      <path class="cls-3" d="M149.84,70.19c2.35-2.57,5.31-4.03,8.74-5.55-1.92-.98-3.63-.66-5.21-.94-.7-.13-1.46,.02-2.09-.41-.46-.32-.99-.71-.68-1.35,.3-.6,.79-.19,1.24-.08,1.23,.3,1.39,.17,1.11-1.09-.14-.6-.31-1.09,.32-1.43,.6-.32,1.38-.44,1.79,.09,1.03,1.34,2.18,.82,3.55,.78,2.15-.06,4.28-.4,6.43-.33,1.08,.03,1.97,.42,2.9,.95,1.82,1.04,1.82,1.13,2.4,3.11,.31,1.09,.56,2.16,.61,3.26,.07,1.37-.24,1.65-1.61,1.5-.7-.08-1.18,.11-1.75,.5-2.69,1.86-5.62,1.31-8.51,.68-.81-.18-1.2-.96-1.64-1.65-.57-.9-1.28-.95-1.52-.06-.32,1.21-1.05,1.37-2.05,1.55-.93,.17-1.8,.62-2.71,.92-.37,.12-.78,.19-1.33-.43Zm14.48-1.57c-.07-.34-.27-.56-.62-.52-.35,.04-.54,.29-.48,.65,.06,.33,.29,.55,.63,.53,.38-.02,.49-.3,.47-.65Z"/>
      <path class="cls-3" d="M174.28,57.16c1.64,1.67,1.63,4.82,0,6.06-.39,.29-.85,.52-1.32,.26-.59-.34-.3-.81-.04-1.2,.65-.97,.7-2.07,.78-3.18,.05-.67-.11-1.43,.57-1.94Z"/>
      <path class="cls-3" d="M167.48,71.38q-1.08,1.54-5.45,1.33c1.59-1.47,3.5-1.12,5.45-1.33Z"/>
      <path class="cls-3" d="M167.41,143c-.58-.25-1.17-.48-1.74-.77-.21-.11-.33-.41-.14-.6,.14-.14,.44-.23,.63-.19,.86,.18,.98,.95,1.19,1.63,0,0,.06-.06,.06-.06Z"/>
      <path class="cls-3" d="M163.64,140.43c-.07,.08-.15,.25-.24,.25-.24,0-.42-.15-.43-.39,0-.09,.16-.27,.24-.27,.23,0,.41,.13,.43,.41Z"/>
      <path class="cls-3" d="M160.61,141.75c.12,.08,.33,.13,.35,.23,.06,.3-.17,.37-.4,.3-.11-.03-.18-.2-.27-.31,.11-.07,.21-.15,.32-.22Z"/>
      <path class="cls-3" d="M162.51,142.97c.16-.05,.27,.01,.3,.19,0,.06-.06,.12-.09,.18-.1-.06-.21-.12-.3-.2-.01,0,.06-.12,.09-.18Z"/>
      <path class="cls-3" d="M223.03,218.13c.03-1.58,1.78-2.85,3.25-2.27,.55,.22,1.02,.27,1.6,.23,1.41-.1,1.59,.21,.98,1.38-.71,1.35-1.85,2.19-3.26,2.64-1.71,.55-2.6-.18-2.57-1.98Z"/>
      <path class="cls-3" d="M236.81,209.18c.65,.55,.52,1.11,.46,1.64-.05,.39-.17,.81-.69,.69-.32-.07-.53-.35-.54-.68-.02-.63,.08-1.23,.77-1.65Z"/>
      <path class="cls-3" d="M263.98,222.87c.04-1.63,.37-1.94,1.94-1.87,1.59,.07,2.82,1.13,2.72,2.36-.08,1.11-1.17,1.89-2.61,1.87-1.71-.03-2.1-.47-2.05-2.36Z"/>
      <path class="cls-3" d="M356.83,556.89c.36,.03,.65,.18,.65,.53,0,.5-.39,.59-.79,.59-.32,0-.67-.11-.65-.49,.02-.46,.41-.58,.79-.63Z"/>
      <path class="cls-3" d="M406.76,620.1c-.02,.3-.02,.59-.06,.89-.02,.13-.11,.36-.17,.36-.34,0-.29-.27-.21-.46,.12-.27,.29-.53,.43-.79,0,0,0,0,0,0Z"/>
    </g>
    <g class="cls-1">
      <path class="cls-2" d="M396.81,550.92c.15-2.15,.4-3.94,.83-5.7,.13-.54,.25-1.09,.45-1.61,.15-.37,.42-.71,.91-.62,.38,.07,.45,.38,.51,.71,.2,1.24,.88,1.28,1.62,.51,.83-.85,1.61-1.5,2.91-1.03,.66,.24,1.17-.3,1.73-.61,1.66-.92,2.86-.48,3.68,1.22,.5,1.03,.64,2.13,.69,3.26,.31,6.23,.15,12.47,.17,18.71,0,2.64,.05,5.28-.02,7.92-.09,3.07,.67,5.77,2.79,8.11,1.19,1.32,1.26,3.13,.94,4.8-.6,3.14-.24,6.27,.47,9.26,1.25,5.29,2.41,10.59,3.13,15.98,.57,4.21,.6,8.45,.35,12.69-.1,1.76-.53,3.49-1.49,5.01-.57,.91-.69,1.73-.03,2.65,.27,.37,.46,.87,.49,1.33,.27,4.06,.59,8.13-.03,12.19-.35,2.32-.11,4.63,.02,6.92,.19,3.33-.08,6.5-1.47,9.6-.69,1.55-1.62,2.76-3.01,3.6-3.08,1.86-6.24,3.57-9.69,4.7-1.64,.54-3.33,.38-5,.37-1.32-.01-2.53,.24-3.68,.86-4.57,2.46-9.13,4.94-13.73,7.34-3.97,2.07-7.96,4.08-12,6.02-3.02,1.45-5.87,3.28-9.09,4.31-.42,.14-.82,.51-1.11,.87-2.22,2.75-5.22,4.43-8.28,6.01-.99,.51-2.03,.94-3.03,1.45-3.05,1.55-6.24,2.33-9.69,2.26-4.48-.09-8.96,.04-13.44,.08-1.13,.01-2.23-.02-3.2-.74-.69-.51-1.52-.42-2.32-.41-8.48,.1-16.96,.21-25.44,.28-2.66,.02-5.21,.83-7.85,.97-.9,.05-1.14,.63-1.27,1.44-.35,2.21-.38,2.22-2.68,2.22-15.44,0-30.88,.01-46.32,.01-6.24,0-12.48-.02-18.71-.04-.32,0-.64,0-.96-.03-1.66-.14-1.95-.34-1.98-2.04-.05-3.28,.02-6.55,.01-9.83-.01-3.28-.03-6.55-.12-9.83-.02-.86-.25-1.75-.54-2.57-1.6-4.55-2.21-9.31-3.02-14.03-.3-1.74-.34-3.51-.24-5.26,.17-3.15-.43-6.19-1.22-9.22-1.34-5.18-2.7-10.35-4.01-15.53-.68-2.7-.57-5.55-1.5-8.23-1.15-3.31-1.42-6.85-2.43-10.21-.69-2.28-.46-4.76-1.34-7.03-1.09-2.81-1.61-5.81-3.15-8.47-.83-1.43-1.33-3.07-1.85-4.66-1.69-5.15-3.16-10.37-4.59-15.61-1.29-4.74-1.19-9.49-1.12-14.27,.04-2.58-.78-4.8-1.97-6.99-1.12-2.05-1.64-4.3-1.84-6.61-.12-1.43-.21-2.9-.03-4.31,.36-2.83-.53-5.38-1.62-7.85-1.02-2.29-1.71-4.69-2.08-7.11-.52-3.42-2.37-6.45-2.65-9.91-.02-.22-.18-.46-.48-.45-.53,0-.64,.42-.66,.81-.1,2.58-.92,5.02-1.39,7.53-1.33,7.06-2.59,14.16-4.87,20.97-1.79,5.35-2.34,10.92-3.64,16.34-.33,1.38-.33,2.86-.41,4.29-.11,1.93-.32,3.83-1.3,5.55-.46,.81-.38,1.7-.38,2.58,.02,5.32-.95,10.49-2.58,15.53-.52,1.6-1,3.2-1.3,4.86-.55,2.99-1.35,5.9-2.62,8.69-1.3,2.85-1.97,5.93-2.41,9.01-.46,3.18-1.4,6.23-2.25,9.3-.28,1.02-.34,2.05-.32,3.09,.05,4.42-.4,8.76-1.77,13-.88,2.73-1.15,5.69-2.28,8.29-1.98,4.58-2.08,9.22-1.84,14.07,.25,4.94-.2,9.87-1.41,14.74-.97,3.92-.58,7.94,.06,11.9,.38,2.36,1.18,4.64,1.24,7.06,.05,2.31-.01,2.43-2.37,2.44-17.44,0-34.88,0-52.32-.01-4.4,0-8.8,0-13.2,0-2.23,0-2.45-.23-2.41-2.48,0-.16,.05-.32,.02-.48-.46-3,.23-5.84,1.12-8.68,1.03-3.28,.94-6.6,.02-9.92-1.64-5.91-1.27-11.67,1.31-17.29,.56-1.22,1.02-2.56,1.16-3.88,.35-3.33,.54-6.69,.7-10.04,.14-2.95-1.04-5.63-2.02-8.33-.33-.92-.62-1.81-.62-2.78,.01-3.31-1.04-6.42-1.65-9.62-.65-3.43-1.65-6.85-1.46-10.41,.02-.32,.05-.65,0-.96-1.2-7.32-.46-14.68-.6-22.03-.02-1.28-.07-2.55-.37-3.81-.45-1.88-1.04-3.61-2.37-5.13-1.91-2.19-2.4-5-2.85-7.77-.21-1.27,.43-2.34,1.18-3.3,1.64-2.1,2.41-4.44,2.38-7.11-.05-3.76,0-7.52,0-11.27,0-1.52-.49-3.06-.46-4.48,.04-2.07-1.33-3.57-1.43-5.53-.1-2-.05-3.99-.09-5.99-.04-2-.13-4.01,.04-5.99,.13-1.49,.5-3.01,1.04-4.4,1.01-2.62,.94-5.3,.9-8.01-.02-1.44-.17-2.88,.24-4.29,.09-.3,.2-.66,.12-.94-.7-2.41,.67-4.51,1.05-6.75,.21-1.26,.49-2.49,.5-3.78,.04-8.07,.11-16.15,.14-24.22,.02-5.03-.07-10.05,0-15.08,.02-1.53-.1-3.26,1.76-4.1,.23-.1,.5-.55,.46-.79-.43-2.4,.25-4.81-.58-7.29-.83-2.48-1.64-4.39-4.33-5.25-2.41-.78-3.01-2.95-3.03-5.2-.08-8.94-.16-17.89-.13-26.83,.04-11.35,.16-22.71,.32-34.06,.07-5.03,.09-10.09,2.76-14.65,.71-1.21,.76-2.58,.74-3.96-.03-2.48,.11-4.96-.03-7.44-.16-2.85,.36-5.58,1.22-8.24,.72-2.21,.49-4.42,.48-6.65,0-.74-.42-1.35-.83-1.96-1.18-1.78-1.6-3.74-1.74-5.88-.33-5.09,.7-10.04,1.26-15.03,.42-3.75,.06-7.51,.4-11.25,.02-.23-.06-.48-.57-.52-.83,1.64-1.2,3.45-1.17,5.35,.06,3.37-.25,6.71-.51,10.06-.23,2.86-1.03,5.48-2.93,7.71-.95,1.12-1.97,2.01-3.41,2.51-2.47,.85-2.72,1.67-1.63,4.18,1.73,3.97,.61,9.81-2.55,12.86-.67,.65-.84,1.29-.73,2.13,.57,4.62-.11,9.07-1.65,13.44-1.04,2.95-1.51,6.05-1.83,9.15-.46,4.39-1.32,8.68-2.61,12.89-.61,2-.72,4.09-.97,6.15-.53,4.37-1,8.77-2.58,12.9-1.52,3.95-2.96,7.92-4.22,11.96-.39,1.24-.63,2.48-.64,3.76-.02,3.36-.06,6.71-.01,10.07,.02,1.54-.14,3.04-.7,4.47-.47,1.21-.32,2.3,.29,3.44,1.72,3.2,2.3,6.63,1.81,10.22-.34,2.49-.36,4.92,.55,7.32,.3,.8,.45,1.75,.34,2.6-.48,3.88,1.04,7.36,2.15,10.9,.53,1.68,.97,3.36,1.27,5.1,.84,4.79,1.21,9.69,2.76,14.33,.9,2.71,2.08,5.33,2.57,8.18,.37,2.15,.26,4.3,.33,6.46,.04,1.34-.56,1.84-1.85,2.04-2.4,.36-4.1-.97-5.78-2.36-.18-.15-.29-.4-.15-.65,.18-.32,.49-.38,.82-.32,.75,.12,1.23,.73,1.88,1.03,1.76,.82,3.52,.17,3.86-1.39,.28-1.27-.18-1.71-1.47-1.43-.16,.03-.3,.12-.45,.15-.56,.12-1.18,.2-1.56-.3-.46-.61,.14-1,.46-1.43,.13-.18,.22-.4,.38-.72-.79-.38-1.21,.06-1.62,.54-.53,.62-1.16,1.45-1.9,.51-.59-.74-.03-1.55,.73-1.98,1.03-.58,1.49-1.65,2.25-2.46,.22-.24,.33-.54,.04-.99-1.1-.07-1.71,.87-2.51,1.44-.71,.5-1.18,.38-1.36-.52-.26-1.38,.17-2.23,1.46-2.82q.86-.4,1.96-2.35c-1.18-.4-1.96,.39-2.81,.83-.41,.22-.7,.67-1.11,.9-.67,.37-1.35-.08-1.26-.84,.12-.99,.62-1.81,1.42-2.41,.38-.29,.84-.47,1.22-.76,.45-.34,.98-.78,.7-1.38-.32-.71-.95-.32-1.46-.13-.39,.15-.76,.21-1.15,.02-1.24-.58-2.83-4.42-2.14-5.58,.87-1.46,.69-3.1,1.08-4.64,.1-.4,.01-.83-.47-.96-.43-.11-.76,.14-1.02,.46-.31,.39-.52,.84-.48,1.32,.11,1.29-.62,1.56-1.72,1.77-2.14,.4-2.9,1.9-2.28,4.06,.81,2.83,1.66,5.63,3.42,8.07,.54,.74,.19,1.51-.49,2.25-.75-.75-1.04-1.64-1.12-2.59-.07-.82-.44-1.51-.77-2.24-.5-1.08-1.18-1.25-2.31-.98-3.67,.88-3.69,.83-4.28,4.58-.09,.54-.15,1.14-.02,1.66,.73,2.97,.71,6.01,.82,9.04,.07,2.04,.77,3.71,2.64,4.78,1.17,.67,1.9,1.94,3.22,2.46,.24,.09,.49,.5,.49,.77,.01,1.03,.63,1.35,1.5,1.53,2.02,.44,3.36,2.12,5.19,2.92,.37,.16,.53,.58,.52,1.01,0,.59,.28,.87,.88,.83,.89-.05,1.26,.63,1.59,1.26,.71,1.33,1,2.76,.11,4.1-.89,1.34-2.39,1.74-3.82,1.43-2.07-.45-4.13-.43-6.2-.45-3.17-.04-6.13-1.1-8.99-2.21-3.7-1.43-7.36-3.06-10.8-5.03-3.3-1.89-5.71-4.73-6.46-8.7,.84-.18,.9,.65,1.39,.84,.32,.12,.62,.19,.89-.05,.27-.25,.32-.66,.11-.88-1.62-1.74-1.86-3.98-2.38-6.14-.24-1.01-1.05-1.97-1.95-2.34-1.97-.81-2.35-2.55-2.68-4.21-.19-.95-.42-1.59-1.2-2.15-.77-.55-1.22-1.33-.46-2.24,.45-.55,.52-1-.22-1.3-1.25-.51-1.15-1.61-1.17-2.64-.03-3.28-.07-6.55-.04-9.83,.01-1.5-.33-2.86-1.29-4.01-.87-1.05-1.19-2.22-1.08-3.56,.26-3.25-.33-6.36-1.56-9.37-.34-.84-.41-1.73-.28-2.6,.28-1.94,.07-3.84-.51-5.69-.93-2.94-1.14-5.95-1.03-9,.11-3.28-.15-6.54-.25-9.81-.22-6.95-.15-13.9-.17-20.86,0-2.08-.1-4.13-.51-6.19C.15,403.46,.14,397.62,0,391.78c-.06-2.68,.65-5.22,1.27-7.77,.33-1.34,.5-2.66,.53-4.02,.1-4.96,.23-9.91,.3-14.87,.03-2.12,.64-4.11,1.27-6.07,.4-1.25,.84-2.47,.65-3.72-.54-3.51,.46-6.77,1.4-10.04,.27-.94,.41-1.87,.4-2.83-.05-5.28-.11-10.55-.13-15.83,0-1.6,.04-3.2,.22-4.79,.23-1.96,.96-3.73,2.63-4.94,2.29-1.67,2.97-4.1,3.08-6.72,.11-2.71,.08-5.44,0-8.15-.05-1.68,.34-3.11,1.46-4.41,1.75-2.02,2.37-4.5,2.39-7.11,.02-2.64,.03-5.28-.14-7.91-.13-1.91,.44-3.54,1.72-4.81,1.61-1.6,2.12-3.59,2.16-5.65,.05-2.03,.46-3.81,1.9-5.23,1.81-1.79,2.25-4.05,2.14-6.39-.1-2.2,.34-3.98,1.92-5.64,1.49-1.55,1.69-3.75,1.8-5.83,.09-1.59,0-3.2-.06-4.79-.05-1.52,.3-2.95,1.44-3.93,2.11-1.81,2.6-4.22,2.5-6.71-.09-2.23,.76-3.9,1.79-5.77,1.64-2.97,2.84-6.14,4.92-8.93,1.09-1.45,1.14-3.63,1.05-5.58-.05-1.16,.19-2.16,1.02-3.08,1.34-1.49,2.48-3.07,2.51-5.27,.02-1.43,1.27-2.36,2.05-3.45,.61-.86,1.23-1.67,1.4-2.74,.37-2.32,1.68-4.1,3.26-5.74,.94-.98,1.83-2.01,2.82-2.94,1.21-1.14,1.91-2.47,2.32-4.09,.5-1.97,1.77-3.59,3.16-5.02,1.44-1.49,3.06-2.81,4.63-4.17,1.53-1.34,3.22-2.36,5.3-2.58,1.12-.12,1.86-.9,2.56-1.66,.97-1.03,2.14-1.78,3.5-1.95,2.7-.33,4.41-2.13,6.11-3.92,1.8-1.9,3.69-3.52,6.44-3.74,1.83-.15,2.83-1.71,4.27-2.53,.47-.27,.22-.87,.13-1.34-.15-.72,.14-1.42,.71-1.64,1.64-.64,2.85-2.1,4.63-2.4,1.68-.28,2.69-1.31,3.28-2.8,.24-.62,.54-1.17,1.04-1.58,1.93-1.6,3.17-3.77,4.76-5.65,.86-1.03,.91-2.35,1.42-3.5,1.28-2.89,3-5.47,5.06-7.82,1.7-1.95,3.18-4.01,3.99-6.49,.99-3.04,3.49-4.95,5.53-7.14,2.5-2.67,4.75-5.64,7.9-7.66,.76-.49,.92-1.15,.75-2.07-.58-3.21-.98-6.43-2-9.58-.56-1.75-1.11-3.78-.75-5.8,.11-.61,.1-1.35-.14-1.89-1.37-3-1.25-6.18-1.21-9.34,.01-1.53-.89-2.71-1.12-4.12-.06-.37-.41-.34-.72-.43-1.23-.35-1.43-.86-.45-1.62,1.68-1.3,1.53-3.02,1.48-4.78-.06-1.91-1.08-3.68-.9-5.64,.02-.21-.12-.46-.24-.67-3-5.4-4.13-11.39-3.53-17.45,.24-2.45,.14-4.94,.1-7.41-.03-2.34,.08-4.59,1.25-6.73,1.15-2.1,1.81-4.44,3.05-6.5,.34-.56,.49-1.2,.5-1.84,.03-1.89,1.04-3.24,2.16-4.66,1.69-2.13,3.35-4.27,5.34-6.12,2.31-2.16,4.55-4.42,6.99-6.42,3.36-2.75,7.18-4.71,11.53-5.4,.96-.15,1.83-.44,2.71-.85,1.57-.73,3.28-.57,4.96-.6,2.02-.04,4.05,.42,6.08-.39,.8-.32,2.02-.24,2.79,.17,2.44,1.28,5.22,1.45,7.71,2.55,1.23,.55,2.28,1.38,3.5,1.98,2.65,1.3,5.44,2.23,8.09,3.48,1.83,.87,2.92,2.7,4.53,3.89,4.69,3.45,6.69,8.61,8.51,13.8,1.18,3.37,2.38,6.8,2.96,10.3,.63,3.77,1.71,7.49,1.76,11.35,0,.8,.03,1.61,.16,2.39,.46,2.76,.02,5.41-.86,8.02-.2,.6-.39,1.22-.52,1.85-.47,2.22-.23,2.49,1.93,3.18,1.28,.41,2.5,1.02,3.71,1.62,.86,.43,1.17,1.32,1.32,2.19,.82,4.62,1.01,9.22-1.03,13.62-1.8,3.9-3.63,7.79-5.47,11.67-.34,.72-.76,1.47-1.53,1.79-1.13,.46-1.48,1.41-1.69,2.44-.39,1.87-.72,3.76-1.07,5.64-.19,.97,.11,1.69,.96,2.24,1.14,.74,2.2,1.56,3.46,2.13,3.89,1.73,6.75,4.63,9.38,7.96,3.44,4.35,5.68,9.38,8.6,14.02,.65,1.03,1.49,1.87,2.36,2.69,1.43,1.35,2.04,3.03,2.03,4.95,0,.86-.41,1.73,.31,2.51,.93,1.01,1.92,1.94,3.24,2.37,2.41,.79,4.67,1.78,6.77,3.26,1.2,.85,2.69,1.34,4.03,1.94,3.21,1.43,6.19,3.26,9.32,4.82,2.61,1.3,5.19,2.71,7.6,4.47,1.84,1.33,3.76,2.77,6.1,3.53,1.5,.49,2.97,1.42,4.43,2.19,2.11,1.11,4.36,1.89,6.42,3.08,.7,.4,1.44,.71,1.97,1.33,.79,.92,1.66,1.72,2.87,2.08,.3,.09,.64,.24,.83,.46,2.92,3.49,6.93,6.07,8.75,10.5,.38,.93,1.19,1.69,1.78,2.54,1.54,2.21,2.91,4.51,3.67,7.13,.11,.37,.35,.71,.58,1.03,.23,.33,.72,.6,.74,.92,.12,2.09,1.78,3.46,2.41,5.32,.61,1.78,1.64,3.42,2.53,5.08,1.69,3.15,3.29,6.34,4.45,9.7,.99,2.86,2.23,5.63,3,8.59,.37,1.44,1.22,2.76,1.82,4.15,2.71,6.32,4.47,12.97,6.68,19.46,1.28,3.77,2.65,7.52,3.78,11.34,.84,2.82,1.83,5.6,2.09,8.58,.15,1.73,.74,3.42,1.18,5.12,.93,3.62,2.35,7.12,2.54,10.92,.06,1.18,.38,2.37,.73,3.5,1.18,3.82,1.6,7.81,2.35,11.71,.94,4.92,2.57,9.73,2.75,14.82,.07,1.94,.5,3.95,1.38,5.78,.7,1.47,.51,3.13,.92,4.69,.97,3.72,1.65,7.51,1.37,11.38-.15,2.07,.66,3.95,1.16,5.84,.61,2.3,.73,4.58,.75,6.88,.03,2.65,.19,5.25,.87,7.83,.91,3.42,1.1,6.95,1.08,10.47-.02,3.14,.26,6.25,1.2,9.23,.79,2.5,.83,5.03,.82,7.59-.01,6.24,.03,12.47-.04,18.71-.03,2.82,.41,5.58,1.02,8.3,.91,4.07,.78,8.09-.32,12.08-.52,1.88-.64,3.78-.63,5.7,.03,7.92,.08,15.83,.08,23.75,0,6.4-.05,12.79-.08,19.19,0,.88,.09,1.87-.7,2.44-1.05,.75-1.02,1.66-.79,2.74,.57,2.66,.89,5.35,.97,8.07,.05,1.68,.61,3.3,1.28,4.85,.47,1.09,.39,2.02,.09,3.19-.89,3.48-1.5,7.03-1.95,10.59-.06,.49,.01,.97,.29,1.38,1.49,2.17,2.68,4.55,4.82,6.23,.92,.72,1.83,1.13,3.05,1.07,2.39-.13,4.8-.02,7.2-.13,3.37-.15,6.37,.95,9.45,2.21,5.11,2.08,8.39,5.93,11.18,10.38,1.74,2.78,3.66,5.42,5.78,7.91,3.37,3.96,6.34,8.18,8.73,12.84,1.53,2.97,3.5,5.72,5.29,8.55,.11,.18,.37,.27,.97,.67Zm-138.73,4.44c-.47,.39-.95,.78-.76,1.66,.74-.48,.57-1.17,.71-1.73,.15-.45,.98-.6,.62-1.33-.72,.29-.48,.91-.58,1.41ZM156.26,16.24c-.07,.71,.3,1.12,1.13,1.46-.25-.76-.56-1.21-1.18-1.4-.24-1.01-.78-1.72-2.24-2.2,.78,1.18,1.2,2.02,2.3,2.15Zm97.51,553.71c-.58-.33-.98-1.24-2-.64,.58,.84,1.32,.72,2.07,.59,.73,1.38,.73,1.38,2.13,1.23-.56-.77-1.33-1.06-2.19-1.18ZM160.12,95.87c-.02,.32-.08,.63-.06,.95,.02,.32,.08,.66,.43,.78,.12,.04,.33,0,.41-.09,.32-.35,.25-.75-.06-1.05-.22-.22-.52-.35-.79-.52-.03-.31-.05-.63-.1-.94-.07-.47-.15-.96-.77-.99-.13,0-.34,.09-.4,.2-.32,.6-.08,1.07,.43,1.4,.25,.16,.59,.19,.89,.28Zm104.87,445.16c1.46-.31,2.08-1.66,3.18-2.42-2.02-.35-2.33,1.37-3.13,2.49-.46,.95-1.49,1.65-1.33,3.04,1.17-.81,1.51-1.84,1.28-3.11Zm115.03,69.46c-1.21,.98-1.96,2.27-2.17,4.18,.8-1.73,2.48-2.41,2.1-4.24,.42-.37,.87-.72,.72-1.37-.01-.05-.31-.12-.39-.06-.53,.4-.47,.94-.27,1.49ZM215.76,149.76c-.89,.09-1.37,.78-1.91,1.33-4.71,4.79-9.71,9.26-14.72,13.73-5.57,4.98-9.22,11.16-11.9,18.01-.17,.44-.27,.92-.32,1.39-.05,.37-.45,.78,.1,1.38,.66-1.57,1.28-2.95,1.82-4.36,2.3-5.99,5.61-11.29,10.48-15.54,5.06-4.41,9.86-9.11,14.7-13.77,.67-.65,1.55-1.18,1.7-2.24,.63-.13,1.12-.36,.91-1.17-.53,.24-.92,.57-.86,1.22Zm72.2,398.93c.56-.89,.34-1.67-.33-2.38-.33-.35-.74-.74-1.2-.28-.34,.33-.09,.73,.16,1.05,.44,.55,1.21,.81,1.4,1.58,.34,.99-.21,1.87-.38,2.8-.15,.81-.74,1.13-1.56,1.22-3.16,.35-6.31,.85-9.5,.83-2.17-.01-4.49,.69-6.32-1.37,.96,5.36,3.76,9.26,8.44,11.83,1.04,.57,1.9,.25,2.57-.53,1.13-1.33,2.27-2.67,2.99-4.29,.09-.21,.06-.46-.24-.58-.66,.22-1,.74-1.17,1.39-.32,1.26-1.31,1.98-2.23,2.73-.94,.76-1.99,.72-2.87-.02-2.22-1.86-4.03-4.09-5.26-6.73-.49-1.05-.08-1.56,1.23-1.5,1.68,.08,3.36-.23,5.02-.14,2.61,.14,5.17-1.09,7.79-.26,.25,.08,.48-.09,.58-.32,.57-1.3,1.41-2.52,1.41-4.02,0-.45-.28-.72-.55-1.02Zm103.81,71.41c-1.29,.34-2.25,.97-2.88,2.27-.51,1.05-1.46,1.88-2.12,2.88-.44,.66-1.24,1.12-1.42,2.22,1.74-1.04,2.39-2.9,3.98-3.63,.74,.43-.22,1.37,.58,1.61,3.76-3.41,6.09-8.11,10.49-10.86,.17-.11,.22-.41,.31-.63,.5-1.19,1.32-2.18,2.04-3.23,1.38-2,2.5-4.13,3.66-6.72-.48,.38-.64,.45-.71,.57-2.89,4.93-6.98,8.87-10.81,13.03-.94,1.02-2.47,1.2-3.13,2.5h0ZM152.35,143.06c.71,.07,1.42,.14,2.14,.2,1.09,.08,2.8-.83,3.19-1.73,.48-1.1-.26-1.8-.9-2.51-.05-.06-.11-.12-.16-.18-.57-.89-1.13-1.52-2.27-.63-.89,.69-1.73,.18-2.23-.64-1.13-1.85-2.65-3.19-4.35-4.57-1.75-1.42-3.55-2.92-5.13-4.6-.62-.66-1.17-1.28-2.24-.8-.64,.29-1.28-.21-1.15-.78,.46-1.97-.87-2.67-2.17-3.43-.43-.25-.81-.52-1.02-.97-.98-2.12-2.82-3.66-3.88-5.73-.18-.35-.33-.8-.83-.62-.46,.16-.43,.63-.38,1.02,.62,4.76,.35,9.57,.52,14.35,.23,6.62,2.33,12.47,5.78,17.99,1.88,3,4.5,5.38,6.55,8.24,1.48,2.07,3.22,3.95,4.82,5.94,.56,.7,1.15,1.01,2.07,.71,2.51-.8,4.53,.04,6.13,2.02,.7,.87,1.34,1.79,2.02,2.68,.19,.25,.41,.57,.78,.39,.43-.21,.4-.64,.32-1.04-.1-.53-.62-.69-.9-1.05-.87-1.09-2.09-2.16-1.45-3.76,.46-1.14,.04-1.6-.93-2-1.04-.43-1.97-1.07-2.7-1.94-.51-.61-.46-1.25,.3-1.56,1.2-.48,2.47-.78,2.35-2.51-.03-.39,.56-.48,.91-.67,.88-.46,1.78-.66,2.77-.49,.33,.06,.63-.11,.76-.45,.13-.33,.01-.65-.23-.87-.23-.21-.51-.38-.79-.52-.45-.23-.85-.51-.74-1.08,.12-.63,.66-.59,1.14-.6,.49-.01,.89-.31,.56-.72-.81-1,.46-1.74,.32-2.59-1.34-.61-2.66-1.03-3.82-1.66-1.71-.93-3.88-1.1-5.1-2.89l-.06,.06Zm-14.08-37.24c1.95,.15,2.71,.49,2.64,1.67-.08,1.32,.9,2.19,1,3.39,.05,.59,.53,.75,1.07,.46,1.44-.76,2.73-3.67,2.3-5.22-.06-.21-.23-.42-.42-.54-.45-.29-1.16-.25-1.24-.97-.09-.78,.52-1.08,1.06-1.43,.25-.16,.49-.4,.64-.67,1.35-2.36,2.77-4.64,5.72-5.29,.28-.06,.53-.34,.77-.55,2.15-1.89,4.7-3.16,7.18-4.55,.37-.21,.74-.33,.61-.84-.12-.45-.5-.59-.91-.64-.9-.13-1.46,.39-2.06,.97-.64,.62-1.38,.27-1.94-.21-.56-.48-.5-1.13-.13-1.75,.64-1.07,1.6-1.57,2.82-1.38,.62,.09,1.22,.37,1.81,.61,.54,.22,1.2,.48,1.55-.04,.97-1.44,2.64-2.05,3.71-3.35,.48-.58,.87-1.11,.63-1.93-1.01-3.44-1.78-6.89-.69-10.48,.11-.37,.05-.79,.04-1.19-.06-2.63,.15-5.27-.4-7.88-.16-.76-.05-1.6,.05-2.38,.08-.64,.62-1.11,1.2-.74,1.44,.9,2.14-.31,3.14-.85,1.48-.79,1.34-2.03,1.14-3.31-.11-.73-.09-1.41,.26-2.09,.42-.83,.84-1.4,1.79-.61,.5,.42,1.05,.73,1.75,.61,2.06-.37,3.83-3.66,2.78-5.47-.66-1.14-.72-2.06,.03-3.08,.7-.95,.59-1.83,.11-2.9-1.13-2.49-2.66-4.34-5.65-4.41-.47-.01-1.04-.09-1.03-.73,0-.57,.51-.77,.97-.91,.97-.29,1.89-.11,2.78,.34,.71,.36,1.39,.34,1.97-.27,1.28-1.34,.2-5.51-1.61-5.61-1.17-.06-2.71-.23-3.64,.47-1.33,1-2.39,1-3.7,.24-.24-.14-.66-.15-.93-.05-2.89,1.04-4.9-.46-6.8-2.32-.28-.28-.58-.55-.89-.79-.42-.32-.89-.37-1.32-.02-.4,.33-.16,.68-.04,1.07,.4,1.3,.13,1.67-1.07,1.34-1.22-.34-2.44-.77-3.45-1.6-.29-.24-.6-.53-1.03-.16-1.42,1.23-2.99,.87-4.51,.3-1.34-.5-2.65-1.11-3.94-1.74-3.76-1.81-6.36-1.13-9.06,2.07-1.91,2.26-3.53,4.71-5.32,7.04-.61,.79-1.11,1.33-.12,2.16,.49,.41,.29,1.08,.1,1.59-.55,1.55-.66,3.07-.14,4.67,.16,.5,.03,1.11,.02,1.66-.06,2.27-1.34,4.41-.63,6.77,.16,.53-.29,1.06-.69,1.47-.74,.75-1.02,1.76-.84,2.66,.42,2.1-.13,4.13-.19,6.19-.19,6,.42,11.95,1.05,17.9,.24,2.29,.79,4.56,1.35,6.8,.39,1.58,1.72,2.88,1.43,4.7-.04,.22,.27,.62,.52,.74,1.06,.52,1.38,1.5,1.66,2.51,.24,.85,.62,1.52,1.67,1.24,1.21-.32,1.42,.35,1.7,1.35,.54,1.94-.11,4.62,2.91,5.23,.21,.04,.33,.52,.51,.8-.17,.24-.36,.48-.52,.73-.17,.26-.27,.53,0,.79,.04,.04,.14,.06,.2,.04,.37-.11,.38-.44,.37-.73,0-.3-.07-.6-.11-.89Zm166.87,358.67c-.84-.75-1.83-.22-2.72-.28-3.13-.23-3.13-.21-3.07-3.37,0-.24,0-.48,0-.72,0-10.31-.06-20.62,.04-30.93,.05-4.53-.61-8.86-2.21-13.11-.77-2.05-1.82-4.12-1.66-6.43,.15-2.25-.67-4.32-1.55-6.2-1.44-3.1-2.37-6.23-2.43-9.63-.02-1.04-.22-2.04-.54-3.05-.76-2.43-1.27-4.96-2.13-7.35-.96-2.66-.87-5.51-1.7-8.18-1.47-4.7-2.13-9.48-1.81-14.41,.07-1.11-.01-2.24,.03-3.36,.05-1.32-.16-2.55-1.04-3.59-2.08-2.45-2.6-5.4-2.78-8.47-.12-2.02-.65-3.92-1.65-5.7-.69-1.25-1.55-2.48-1.58-3.97-.03-1.41-.74-2.14-1.97-2.68-1.49-.65-2.9-1.58-3.37-3.22-.89-3.07-2.33-5.95-2.92-9.11-.25-1.35-.72-2.66-1.15-4.22-.69,1.06-.43,1.85-.22,2.6,1.37,4.86,1.88,9.88,2.75,14.83,.71,4.01,.55,8.13,1.66,12.09,2.29,8.23,2.82,16.66,2.59,25.16-.04,1.52-.09,3.04-.16,4.55-.34,7.71,.97,15.29,1.94,22.88,1.31,10.24,2.21,20.5,2.15,30.82-.02,3.86,.1,7.63,1.5,11.29,1.26,3.29-.13,6.34-3.35,7.88-1.16,.56-2.29,1.12-3.63,1.06-.93-.04-1.49,.54-1.06,1.36,1.2,2.3,1.13,5,2.39,7.25,.59,1.06,1.04,2.15,1.23,3.35,.53,3.39,.82,6.79,.81,10.22-.01,3.51,.07,7.02,.89,10.47,.13,.54,.22,1.1,.25,1.66,.46,7.97,.37,15.96,.95,23.93,.2,2.71,.21,5.39,.87,8.06,.45,1.84,.97,3.73,.83,5.67-.22,3.2,.68,6.3,.75,9.48,.02,.89,.57,1.18,1.23,.58,1.35-1.21,3.01-1.73,4.65-2.25,1.2-.38,1.67-1.08,1.69-2.27,.03-1.37,.2-2.72,.94-3.92,1-1.62,1.47-3.45,1.35-5.27-.17-2.55,.73-4.82,1.34-7.18,.36-1.41,.4-1.45-1.07-1.23-.39,.06-.79,.27-1.11-.1-.32-.38-.1-.74,.14-1.07,1.53-2.12,2.1-4.14-.55-5.9-.34-.22-.38-.72-.02-1.05,.35-.34,.72-.19,1.08,.06,.72,.5,.77,1.38,1.18,2.05,.22,.35,.53,.72,.95,.47,.42-.25,.23-.69,.04-1.06-.93-1.8-1.61-3.64-1.14-5.73,.13-.58-.23-1.07-.54-1.54-.52-.8-.45-1.51,.63-1.43,2.44,.18,2.97-1.51,3.31-3.28,.4-2.05,.55-4.15,2.59-5.39,.21-.13,.21-.47,0-.61-.17-.11-.48-.17-.65-.09-.57,.27-1.1,.65-1.68,.91-.37,.17-.83,.13-1.08-.25-.25-.37-.14-.82,.15-1.1,.52-.48,1.1-.92,1.69-1.32,2.26-1.51,4.08-3.31,4.56-6.16,.16-.97,.76-1.76,1.57-2.34,.5-.36,.93-.21,1.01,.44,.04,.31-.08,.63-.12,.95-.04,.41-.05,.85,.41,1,.52,.17,.68-.26,.81-.65,.08-.23,.11-.47,.18-.7,.24-.77,.79-1.22,1.57-1.27,.82-.05,.94,.66,1.23,1.24,.99,2,2.73,2.33,4.13,.63,1.01-1.24,2.9-2.26,1.86-4.43-.05-.11,.04-.32,.13-.45,.75-1.08,.15-1.76-.68-2.4-.59-.45-.9-1.03-.96-1.83-.16-1.93-.21-1.99-2.11-1.97-.76,.01-1.55-.48-2.4,.06,.57,.87,.87,1.66-.69,1.57-1.64-.09-2.86,.85-4.11,1.72-.41,.29-.67,.95-1.45,.59-.08-2.21,2.25-2.88,3.02-4.68Zm16.23,66.88c.68-.04,1.97,0,3.23-.21,2.23-.36,4.1-1.28,4.88-3.65,.5-1.52,1.04-3.06,1.94-4.37,1.24-1.8,2.05-3.79,2.82-5.8,.51-1.33,.73-2.78,1.61-3.97,.42-.57,.25-1.21,.02-1.84-.52-1.42-1.81-2.2-2.74-3.28-.35-.4-.87-.22-1.31,.07-2.16,1.42-4.59,2.16-7.07,2.83-1.98,.53-4.01,.98-5.54,2.62-.7,.75-1.78,1.03-2.87,1.03-3.21,0-6.37-.47-9.44-1.34-3.05-.86-3.21-.9-4.61,1.9-.14,.28-.24,.59-.37,.89-2.3,5.12-3.4,10.65-5.49,15.84-.39,.96,.21,1.41,.85,1.98,2.49,2.23,5.07,4.39,6.45,7.6,.43,1.01,1.22,1.86,1.85,2.79,.56,.84,1.19,.83,1.63-.03,.9-1.77,1.76-3.56,2.56-5.38,1.3-2.99,3.07-5.52,6.07-7.08,1.62-.84,3.29-.39,5.54-.57ZM37.04,468.23c-1.33-1-2.58-1.2-3.82-1.39-.71-.11-1.51-.07-1.81-.9-.36-1-1.13-.93-1.95-.93-3.03,0-5.69,1.35-8.47,2.27-.06,.02-.04,.28-.06,.43,.73,.89,1.62-.16,2.56,.2-.57,.85-1.38,1.16-2.17,1.48-.47,.19-1.02,.16-1.23-.38-.69-1.74-1.79-1.08-2.92-.59-1.27,.55-2.36,1.34-3.32,2.31-.96,.97-1.08,1.79,0,2.34,1.63,.83,1.7,2.1,1.68,3.58,0,.63,.14,1.27,.28,1.89,.36,1.53,.14,3.01-.22,4.5-.26,1.07-.81,1.94-1.86,2.34-2.32,.89-3.52,2.52-3.61,5.02-.02,.57-.23,1.12,.26,1.55,.56,.51,1.21,.4,1.76,.01,.79-.55,1.55-1.14,2.26-1.77,.78-.68,1.74-.92,2.34-.14,1.31,1.7,3.27,3.08,3.29,5.55,0,1.08,.59,1.39,1.55,1.28,1.12-.13,1.91-.7,2.39-1.74,1.25-2.67,2.46-5.38,5.44-6.64,.14-.06,.26-.18,.38-.29,.48-.47,.73-1.05,.76-1.71,.03-.75-.65-.79-1.1-1.08-1.51-1-1.54-1.58,.08-2.54,.99-.59,1.48-1.17,.94-2.29-.32-.65-.03-1.19,.19-1.81,.68-1.94,1.58-3.89,2.67-5.51,1.15-1.69,1.01-4.27,3.69-5.06ZM137.67,196.9c.14,2.95,.11,5.39-.07,7.85-.58,7.74-2.12,15.35-2.92,23.07-.66,6.35-1.23,12.71-2.24,19.03-.83,5.2-1.03,10.49-1.58,15.74-.89,8.58-1.74,17.16-3.03,25.7-.2,1.34-.3,2.71-.25,4.06,.19,4.47,.35,8.95,.73,13.4,1.1,12.83,1.93,25.68,1.53,38.56-.28,9.34-.31,18.69-.96,28.04-.66,9.56-.78,19.17-.52,28.77,.18,6.39,.07,12.79,.22,19.19,.18,8,.04,15.99-.16,23.98-.03,1.26,.43,2.62-.3,3.77-.92,1.44,1.04,2.48,.39,3.85-.14,.29,.1,.63,.46,.72,.48,.12,.73-.2,.91-.58,.22-.47,.09-.94-.02-1.41-.24-.95-.14-1.92-.03-2.86,.6-5.41,.78-10.82,.61-16.27-.29-9.51-.27-19.03-.46-28.54-.12-5.75-.24-11.51-.19-17.26,.05-6.39,.94-12.74,1.02-19.13,.11-9.03,.47-18.06,.81-27.08,.09-2.41-.37-4.79-.16-7.18,.26-2.97,.14-5.92-.26-8.85-.27-1.99-.45-3.97-.35-5.98,.23-4.34-.58-8.59-.99-12.88-.35-3.73-1.24-7.44-.69-11.21,.33-2.29,.58-4.57,.63-6.89,.07-3.37,1.15-6.58,1.47-9.93,1.38-14.16,2.96-28.29,4.47-42.44,.41-3.89,.72-7.8,1.24-11.68,1-7.46,1.42-14.96,1.74-22.47,.04-.89,.28-1.92-1.04-3.07Zm47.84,40.88c.45,2.28,.25,4.43,.4,6.56,.61,8.93,1.54,17.83,2.41,26.73,.93,9.53,1.9,19.05,1.06,28.7-.52,5.95-.07,11.98-.02,17.97,.12,12.47,1.2,24.9,1.54,37.36,.12,4.3,.87,8.6,.89,12.9,.02,5.59,.76,11.14,.73,16.74-.05,9.19,.71,18.36,.73,27.56,.02,9.03,.33,18.06,.54,27.08,.01,.64-.34,1.7,.73,1.7,1.02,0,.74-1.01,.76-1.69,.1-2.57-.59-5.07-.61-7.62-.07-8.47-.45-16.93-.21-25.4,.05-1.91,.06-3.83-.02-5.75-.21-4.47-.55-8.93-.72-13.4-.1-2.64-.08-5.27-.63-7.87-.52-2.44-.51-4.92-.49-7.4,0-.72,.05-1.45-.03-2.16-.6-5.08-.52-10.2-.81-15.3-.31-5.5-.29-11.01-.46-16.52-.1-3.19-.33-6.38-.4-9.58-.12-5.59-.24-11.19-.23-16.78,0-4.87-.41-9.73-.02-14.62,.46-5.73,.42-11.5,.24-17.25-.13-4.15-.47-8.29-.73-12.44-.04-.55-.2-1.1-.25-1.65-.46-4.61-1.25-9.18-1.49-13.81-.21-3.91-.43-7.82-1.02-11.7-.17-1.08-.46-1.96-1.86-2.37Zm31.8-32.86c-.57,.06-1.45,.08-2.31,.26-1.21,.24-2.27,.78-2.91,1.92-.54,.96-.13,1.75,.97,1.86,.75,.08,1.4-.24,2.05-.56,.68-.34,1.01-1,1.48-1.53,.3-.33,.71-.4,1.07-.14,.37,.27,.39,.71,.24,1.08-.11,.27-.37,.51-.6,.71-1.63,1.41-3.3,2.77-4.88,4.21-.93,.85-1.65,2.1-3.02,.55-.25-.28-.75-.07-1.15,.03-3.85,.94-5.46,4.83-4.25,7.52,.58,1.29,.22,2.02-.93,2.75-.55,.35-1.18,.49-1.81,.57-1.84,.23-2.87,1.25-3.07,3.1-.08,.77-.52,1.79,.48,2.08,.86,.24,.99-.83,1.33-1.43,.04-.07,.07-.15,.11-.21,.66-.99,1.24-1.06,2.11-.24,1.39,1.29,1.36,2.29-.17,3.72-.55,.52-1.15,1.01-.5,1.79,.56,.67,1.25,.63,1.9,.09,.73-.62,1.5-1.2,2.16-1.89,1.68-1.77,1.66-1.79,.37-3.93-.78-1.3-.14-2.67,1.29-2.41,2.64,.48,4.62-.89,6.71-1.98,.86-.45,1.65-1.13,1.68-2.19,.04-1.47,.73-3.01-.34-4.41-.44-.58-.07-1.03,.32-1.47,1.15-1.31,2.89-2.04,3.68-3.71,.07-.14,.44-.23,.63-.19,.32,.08,.54,.35,.52,.71-.04,.79-.2,1.59-.15,2.38,.08,1.22,.66,1.53,2.22,1.49,1.08-.02,1.66-.43,1.6-1.57-.14-2.71-.19-5.41,.08-8.13,.18-1.79-.9-2.44-2.34-1.38-1.05,.77-1.95,.86-3.08,.55-.37-.1-.79-.02-1.5-.02Zm-62.15-85.54c.43,.89,.02,1.66-.05,2.41-.06,.69-.05,1.24,.65,1.62,1.22,.67,1.79,1.78,1.72,3.23,1.98-1.26,2.02-3.56,3.48-4.97,.63-.6,1.26-1.16,1.93-1.7,.33-.27,.4-.69,.2-1.09-.15-.3-.5-.65-.73-.45-1.32,1.08-2.32,1.14-2.98-.68-.06-.16-.58-.16-.89-.22-2.06-.4-2.13-.48-1.35-2.42,.28-.7,.6-1.39-.04-1.98-.63-.58-1.42-.66-2.24-.37-.52,.18-.97,.81-1.72,.37,.17-.32,.22-.61,.39-.7,1.05-.57,1.91-1.2,2.58-2.32,.93-1.55,3.77-2.15,5.54-1.47,.53,.2,.88,.24,1.28-.14,.36-.34,.8-.52,1.3-.55,1.67-.08,3.09-1.34,4.85-1.05,.31,.05,.64-.19,.67-.55,.03-.34-.21-.59-.53-.7-.22-.08-.46-.14-.69-.19-5.78-1.27-11.52-1.54-17.12,.81-1.16,.49-2.28,1.17-3.28,1.95-1.33,1.05-.74,2.62-.87,4.01-.16,1.65,1.54,1.83,2.06,2.96,.28,.61,1.13-.11,1.71-.29,1.34-.43,1.66-.19,1.3,1.13-.32,1.19-.65,2.4,0,3.48,.43,.71,.55,1.94,1.5,2,1.37,.09,.22-1.57,1.31-2.1Zm8.95,49.52c1.63-.06,2.6,1.1,1.8,2.62-.96,1.82-.49,2.93,1.04,3.97,.52,.35,.89,.91,1.33,1.37,.67,.7,1.29,.73,2.06,.07,1.44-1.26,2.97-2.43,3.9-4.15,.66-1.22,1.64-2.16,2.72-2.98,.83-.62,1.71-1.16,2.57-1.75,.39-.26,.88-.49,.79-1.07-.07-.49-.54-.54-.92-.59-1.58-.2-2.11-1.18-2.13-2.66,0-.7-.19-1.42-.37-2.11-.41-1.61-.88-1.85-2.29-1.13-3.41,1.72-6.65,3.69-9.12,6.68-.38,.46-.85,.66-1.42,.8-.6,.14-1.76-.35-1.62,.74,.11,.84,1.04,.3,1.65,.2Zm147.16,320.86c.64,.24,2.04-.66,2.32,.52,.31,1.31-1.18,1.43-2.14,1.68-1.18,.31-1.42,1.03-.82,1.96,1.36,2.08,1.08,4.21,.49,6.44-.62,2.31-.21,4.6,.54,6.82,.1,.3,.28,.61,.65,.62,.36,.01,.55-.26,.7-.55,1.08-2.15,1.04-4.62,1.99-6.81,.03-.06,.01-.17-.02-.23-.62-1.1-.14-2.47-.57-3.44-.8-1.82,.23-2.72,1.37-3.23,1.46-.66,2.92-1.04,3.04-2.99,.01-.17,.3-.4,.51-.47,1.73-.58,1.97-2.43,3.04-3.56,.34-.36,.42-.92,.23-1.36-.48-1.11-.63-2.29-.93-3.44-.28-1.08-1.39-1.59-1.96-.88-1.18,1.47-2.1,.87-3.18,0-.3-.24-.7-.39-1.08-.49-.91-.24-1.4,.29-1.07,1.2,.27,.75,.64,1.47,1.05,2.15,.58,.97,.51,1.8-.31,2.57-.91,.86-1.68,2.15-3.21,1.4-.93-.45-1.62-.47-2.34,.31-.44,.47-1.04,.24-1.59,.14-.34-.06-.69,0-.8,.33-.17,.47,.21,.72,.57,.89,1.04,.5,2.14,.61,3.51,.41ZM237.07,233.64c.25,0,.57,.01,.89,0,4.25-.23,6.44-2.79,6.18-6.99-.17-2.77-.16-5.55-.14-8.33,0-.9-.35-1.34-1.15-1.52-1.6-.36-2.76,.76-2.12,2.39,.83,2.11,.08,4.26,.58,6.35,.15,.64-.1,1.43-.32,2.1-.72,2.23-4.93,3.22-6.63,1.59-.48-.46-.74-1.04-.82-1.69-.09-.71-.15-1.43-.19-2.14-.1-1.99-.18-3.98-.28-5.97-.08-1.51-.47-1.86-1.87-1.77-1.21,.08-1.44,.37-1.43,1.94,.02,2.15,.06,4.3,.1,6.46,.02,1.28,.26,2.53,.65,3.76,.55,1.74,1.66,2.87,3.42,3.36,1,.28,2.01,.54,3.13,.47Zm11.93-3.17c-.11-2.44-.12-2.4,2.2-2.14,2.05,.23,3.77-.36,4.95-2.19,2.01-3.12,.49-7.02-3.12-7.94-1.79-.45-3.64-.1-5.46-.49-1-.21-1.81,.84-1.89,2.03-.28,4.05,.31,8.11-.23,12.16-.1,.74,.21,1.18,1.07,1.21,2.13,.09,2.58-.36,2.47-2.65Zm-169.83,109.6c-.16,0-.31,.01-.47,.02-.07,.38-.14,.77-.21,1.15-.93,5.28-1.2,10.63-1.69,15.95-.3,3.33-.49,6.69-.04,10.05,.41,3.01,.85,6.02,1.11,9.04,.23,2.62,.51,5.27,.14,7.89-1.32,9.19-1.62,18.45-2,27.71-.04,.85-.68,2.53,.25,2.5,1.52-.04,.8-1.73,.83-2.72,.19-5.42,.15-10.86,.89-16.25,.95-6.97,1.84-13.94,.83-21.01-.68-4.75-1.07-9.53-.73-14.34,.37-5.26,.74-10.52,1.07-15.78,.09-1.4,.01-2.81,.01-4.22Zm144.58-122.29s0,.04,0,.07c-.96,0-1.92,0-2.87,0-1.88,.01-2.07,.25-1.87,2.06,.13,1.19,.28,2.38,.3,3.57,.06,2.71,.04,5.42,.09,8.14,.02,1.37,.26,1.55,1.77,1.55,1.69,0,1.93-.19,1.92-1.65,0-1.04,0-2.08-.13-3.1-.15-1.22,.4-1.57,1.5-1.52,.79,.03,1.61,.08,2.38-.07,.92-.18,1.24-.96,1.22-1.82-.02-.97-.73-1.12-1.51-1.1-.8,.02-1.59,.08-2.39,.08-1.11,0-1.25-.77-1.26-1.63,0-.86,.34-1.38,1.26-1.37,.96,0,1.91,.04,2.87,.04,1.13,0,1.57-.64,1.49-1.7-.07-1.03-.54-1.62-1.67-1.57-1.03,.05-2.07,0-3.11,0Zm-46.07-143.55c-2.34-.12-2.53,.09-1.53,2.04,.36,.71,.46,1.32,.14,2.03-.7,1.54-.52,2.94,.69,4.18,.65,.67,.97,1.31-.29,1.74-.62,.21-.81,.81-.55,1.38,.4,.88,1.06,1.59,1.76,2.24,.31,.29,.83,.3,1.07-.07,.7-1.08,2.17-1.71,1.82-3.41-.27-1.31,.48-2.29,1.44-3.1,.43-.36,.9-.66,1.31-1.04,1.32-1.22,1.29-1.91-.26-2.91-.53-.34-.75-.64-.8-1.29-.11-1.58-.85-2.14-2.46-2.06-.79,.04-1.54,.45-2.34,.26Zm-61.5,128.62c-.41,1.7-.88,3.35-1.21,5.03-1.79,9.09-2.64,18.31-3.77,27.49-1.25,10.21-1.91,20.49-2.25,30.79-.09,2.77,.69,5.55-.09,8.31-.09,.32,.09,.7,.44,.73,.53,.04,.58-.38,.57-.81-.02-1.67-.1-3.34-.02-5,.47-9.48,.96-18.96,1.83-28.41,.41-4.45,.65-8.92,1.36-13.32,1.29-7.95,1.81-16.01,3.59-23.88,.07-.3,.13-.62-.45-.92Zm228.15,355.66c-.09-.83,.29-1.81-.81-2.29-2.5-1.09-5.23-1.28-7.84-1.96-.33-.09-.76,.18-1.13,.3-1.34,.42-2.39,1.26-3.33,2.27-.72,.78-1.49,1.62-.96,2.74,.49,1.04,1.53,.54,2.37,.52,3.33-.06,6.67-.56,10,.24,1.27,.31,1.71-.27,1.71-1.81ZM24.58,502.46c-.11,.55-.2,1.11,.2,1.42,1.12,.84,1.08,1.96,1.13,3.19,.05,1.25,1.27,1.8,2.24,1.05,1.32-1.02,2.72-1.95,3.84-3.22,.64-.72,1.01-1.53,.5-2.39-.57-.96-.94-2.02-1.5-2.97-1.55-2.59-4.4-2.45-5.84,.19-.49,.89-.35,1.87-.57,2.72Zm-5.97-2.08c-.43,.21-.33,.56-.41,.85q-.65,2.4,1.38,3.74c.13,.09,.27,.17,.4,.27,1.68,1.26,1.76,1.83,.48,3.49-1.07,1.4-1.07,1.98,.39,2.84,1.03,.61,1.93,1.11,1.74,2.51-.04,.32,.19,.62,.48,.77,.95,.49,1.1,1.23,.88,2.21-.14,.64,.24,1.08,.92,1.14,.8,.07,1.38-.37,1.84-.95,.48-.61,.33-1.28-.21-1.71-.92-.75-1.11-1.66-1-2.76,.04-.37-.18-.77-.26-1.16-.55-2.7-2.31-4.86-3.38-7.34-.64-1.48-1.52-3.18-3.24-3.91ZM194.72,53.57c-.63,1.09-.9,1.81-1.07,2.59-.37,1.74,.14,3.67-1.24,5.19-.25,.28-.07,.79,.12,1.14,.46,.87,.49,1.83,.62,2.78,.18,1.29,.77,2.43,1.55,3.45,.65,.84,1.38,.79,1.81-.18,.41-.94,.62-1.97,.96-2.95,.37-1.06,.31-2.04-.47-2.9-.69-.76-.77-1.69-.91-2.65-.3-2.03-.4-4.1-1.36-6.48Zm4.08,23.43c.02-.4,.07-.8,.06-1.19-.01-.64,0-1.35-.8-1.54-.69-.16-1.13,.41-1.23,.9-.48,2.23-1.64,4.16-2.5,6.22-.12,.28-.18,.65-.11,.94,.52,2.08-.16,4.11-.27,6.16-.03,.55-.11,1.12-.04,1.66,.07,.51,0,1.29,.71,1.34,.76,.06,1.05-.66,1.15-1.29,.08-.46-.06-.94-.07-1.42-.04-1.14,.08-2.34,.74-3.21,1.94-2.57,1.56-5.72,2.38-8.57Zm186.41,464.41c-.08-1.14-.57-1.75-1.54-2.02-2.4-.65-4.72-.11-7.02,.53-.66,.18-1.06,.7-1.1,1.4-.05,.76,.41,1.16,1.08,1.35,1.07,.3,2.06,.73,3.01,1.35,1.06,.69,4.57-.53,5.16-1.67,.18-.34,.3-.72,.4-.95Zm-22.27-.83c-1.42-.46-2.94,.38-4.54,.42-1.25,.04-2.21,.88-2.69,2.1-.26,.66-.2,1.29,.5,1.65,.64,.33,1.85-.27,1.78-1.03-.18-1.76,.65-1.4,1.67-1.02,2.03,.75,3.91,.23,5.72-.76,.28-.15,.61-.27,.54-.68-.06-.34-.33-.53-.63-.66-.7-.3-1.42-.08-2.34-.02ZM185.75,219.14c-.22,0-.44,0-.66,0-.03,1.53-.09,3.06-.08,4.59,.02,3.43,.06,6.85,.12,10.27,0,.45-.05,1.09,.61,1.1,.68,.01,.92-.55,.92-1.16,0-.39-.07-.79-.14-1.18-.28-1.49-.32-2.96-.18-4.49,.28-3.06-.46-6.07-.58-9.13Zm168.75,405.59c.78-.04,1.45,.07,1.65-.6,.19-.64-.29-1.08-.81-1.28-1.16-.45-2.04-1.98-3.63-.97-.34,.22-.72-.15-1.01-.44-.28-.28-.58-.54-.92-.73-.78-.43-1.53-.31-2.22,.24-.27,.21-.42,.5-.33,.83,.22,.81,.88,1.11,1.62,1.17,1.22,.1,2.28,.62,3.37,1.11,.79,.35,1.66,.5,2.28,.68ZM121.26,220.88c-.17,0-.35,0-.52,0-.08,2.9-.17,5.81-.25,8.71,0,.23,.07,.47,.13,.7,.12,.48,.33,.94,.88,.99,.55,.05,.84-.37,1.11-.77,.52-.77,.68-1.64,.47-2.52-.58-2.38-.84-4.84-1.82-7.12Zm114.28,4.89c0,.47,0,.95,0,1.42-.02,1.12,.68,1.55,1.65,1.61,1.07,.06,1.61-.54,1.61-1.59,0-.64,.17-1.24,.3-1.86,.34-1.6-.28-2.25-1.87-2.04-1.47,.19-1.82,.68-1.69,2.47ZM31.3,492.22c-.03-1.14-.93-1.78-1.92-1.31-.71,.34-1.39,.76-2.04,1.22-.76,.53-.82,1.33-.55,2.14,.24,.73,.72,1.25,1.56,1.22,1.4-.06,2.98-1.82,2.94-3.26Zm224.52,104.08c-.78,.55-.64,1.06-.52,1.49,.24,.92,.55,1.82,.85,2.73,.6,1.81,1.21,3.61,1.82,5.41,.13,.39,.38,.75,.84,.69,.48-.07,.55-.51,.58-.92,.07-.82-.08-1.64-.5-2.3-1.38-2.15-2.16-4.56-3.07-7.1ZM40.6,472.4c1.97-.09,2.33-.34,2.28-1.52-.05-1.19-1.09-2.05-2.44-2.02-1.07,.02-1.58,.92-1.48,2.48,.07,1.13,.75,1.24,1.64,1.07ZM236.18,221.58c1.49,.02,2.39-.59,2.47-1.67,.08-1.11-.85-1.94-2.21-1.96-1.12-.02-1.75,.69-1.82,2.05-.06,1.12,.39,1.57,1.56,1.59Zm81.67,334.87c.14,.02-.17-.04-.49-.05-.41-.02-.83,.05-.97,.5-.12,.42,.16,.74,.43,1.04,.36,.39,.83,.49,1.31,.36,1.45-.39,2.9-.78,4.42-.88,.84-.06,.96-.73,.32-1.35-.55-.53-1.18-.9-1.89-.32-.8,.65-1.7,.81-3.14,.7ZM162.44,101.88c-.12-.13-.23-.38-.42-.44-.76-.27-1.4-.69-2.01-1.22-.49-.43-3.62,.67-3.93,1.3-.21,.44-.05,.81,.38,.94,.36,.12,.78,.1,1.17,.1,1.45,0,2.86-1.02,4.37-.17,.17,.1,.4-.18,.44-.52Zm69.9,488.98c.06-1.15,.84-2.06,.37-2.99-.59-1.17-1.08-2.3-.92-3.64,.02-.16-.22-.41-.39-.53-.22-.15-.53-.06-.63,.14-.45,.92-1.26,2.36-.81,2.81,1.18,1.2,.94,3.05,2.39,4.21Zm102.06-103.95c.16-1.33,.08-2.68-.99-3.49-1.65-1.25-3.07-2.8-4.9-3.82-.4-.22-.85-.73-1.2-.15-.28,.47,.19,.88,.6,1.16,1.06,.72,2.13,1.41,3.19,2.12,1.52,1.03,3,2.09,3.3,4.17ZM172.69,70.14c1.68,1.09,3.41,1.7,5.35,.9,.44-.18,.93-.34,.84-.96-.08-.48-.54-.5-.9-.62-1.84-.62-3.52,.21-5.28,.68Zm200.05,548.96c-.72-2.96-5.4-6.09-8.94-5.86,3.4,1.73,6.62,3.1,8.94,5.86ZM155.65,20.03c-1.58-3.62-4.79-6.82-7.06-6.98,2.57,2.27,4.9,4.52,7.06,6.98Zm208.36,539.22c.3-2.25-.44-4.34-.88-6.48-.12-.57-.51-1.11-1.17-.86-.71,.27-.43,.92-.24,1.42,.75,1.98,1.52,3.95,2.28,5.92Zm-103.97,35.66c1.37,3.52,2.36,7.16,3.93,10.59-.75-3.74-1.88-7.34-3.93-10.59Zm-35.5-454.83c-1.12,.62-5.89,5.99-6.39,7.4,2.22-2.11,4.34-4.32,6.44-6.55,.19-.2,.27-.59-.05-.85Zm126.44,411.42c-2.22-1.14-5.49-.03-6.95,2.43,2.58-.8,4.53-2.33,6.95-2.43Zm-20.72-74.79c1.2,1.34,1.78,3.33,3.84,4.21,.3-3.04-2.29-3.15-3.84-4.21Zm15.49,87.1c-1.32-1.29-2.66-1.3-4.08-.86-.38,.12-.74,.33-.73,.81,.01,.52,.43,.58,.83,.64,1.27,.19,2.51,.2,3.98-.58Zm-37.92-80.59c-.78,.07-1.21,.61-1.52,1.29-.17,.38-.23,.8,.1,1.11,.68,.63,1.14-.09,1.68-.32,.15-.06,.29-.14,.43-.2,.43-.19,1.01-.32,.87-.94-.17-.76-.9-.79-1.57-.93Zm-54.42,120.91c-.35,2.33,.39,4.36,1.47,6.31-.1-2.2-.18-4.4-1.47-6.31Zm91.21-55.14c2.33,.37,5.48,.19,6.39-.23-2.25-.9-4.34-.58-6.39,.23ZM182.41,95.65c-.06-.85-1.22-1.88-2.16-1.9-.46-.01-.77,.22-.79,.68-.03,.6,1.74,2.2,2.33,2.1,.45-.08,.61-.45,.62-.88Zm74.37,473.54c-1.38-1.32-2.58-2.94-4.7-2.97,1.15,1.67,3.01,2.19,4.7,2.97Zm95.63,.19c-.99,1.5-.77,2.75-.61,3.99,.04,.33,.31,.57,.65,.58,.36,0,.59-.29,.59-.61-.02-1.21,.25-2.48-.62-3.95Zm-40.34,8.48c.27,.07,.45-.07,.6-.26,.5-.59,1.01-1.18,1.49-1.79,.25-.31,.42-.69,.04-1.03-.35-.31-.76-.22-1.07,.04-.73,.6-1.35,1.3-1.47,2.3-.04,.31,.05,.61,.4,.74Zm-22.07,1.3c-.7,.05-1.26,.91-1.17,1.81,.05,.55,.17,1.15,.88,1.19,.66,.04,1.23-1.06,1.1-2.06-.07-.51-.26-.91-.81-.94Zm70.54-31.77c.05,.41,.08,.8,.17,1.17,.08,.33,.34,.5,.68,.52,.34,.02,.61-.14,.79-.4,.39-.57,.02-2.48-.56-2.79-.4-.21-.79-.06-.93,.37-.12,.36-.11,.76-.15,1.13Zm-5.08,18.76c-.92-.49-1.79-1.04-2.84-.83-.5,.1-.86,.47-.79,1,.07,.57,.55,.81,1.04,.61,.83-.33,1.71-.49,2.59-.78Zm-116.65,19.83c-.73-.61-1.27-1.06-1.8-1.5-.38-.32-.78-.59-1.21-.13-.5,.52-.23,.99,.18,1.43,.79,.85,1.7,.46,2.83,.21Zm-54.05-374.01c-.29-1.95,1.24-3.83,0-5.83v5.83Zm95.8,358.32c.07,.35-.15,.91,.45,1.12,.35,.12,.58-.14,.76-.4,.35-.51,.86-.98,.55-1.69-.17-.39-.51-.61-.94-.56-.91,.11-.76,.84-.82,1.53Zm-1.62-12.62c-.06-.13-.09-.31-.2-.4-.38-.31-.87-.54-1.29-.2-.52,.42-1.36,.54-1.46,1.38-.03,.26,.21,.47,.44,.45,.86-.06,1.69-.25,2.38-.8,.1-.08,.09-.28,.13-.43Zm61.5-71.84c-.06-.39-.22-.8-.55-.7-.67,.22-1.35,.57-1.36,1.43,0,.43,.29,.77,.76,.72,.91-.09,1.13-.73,1.14-1.46Zm-246.3,203.23c1-.03,1.56-.49,2.12-.94,.31-.25,.67-.59,.42-1-.26-.44-.74-.27-1.06-.04-.64,.45-1.33,.89-1.49,1.98ZM12.61,484.12c.69-.37,.92-1.03,.84-1.78-.04-.45-.41-.75-.85-.54-.76,.36-.94,1.04-.74,1.82,.08,.34,.33,.53,.75,.5Zm299.25-2.77c-.1-.52-.15-1.17-.92-1.11-.54,.04-.84,.47-.82,1.01,.02,.58,.45,.82,.97,.85,.47,.03,.73-.24,.77-.74Zm-115.72-34.58c.05,1.03-.29,1.96,.37,2.77,.17,.21,.5,.16,.58-.08,.34-.94,.06-1.8-.41-2.62-.02-.04-.14-.02-.54-.07ZM174.69,57.72c.08-.39-.03-.74-.36-.79-.88-.11-1.21,.55-1.42,1.24-.1,.33,.11,.64,.48,.64,.73,0,1.09-.51,1.3-1.09Zm215.02,555.32c-.47,1.28,.3,1.98,.44,2.8,.05,.26,.33,.35,.58,.24,.32-.14,.54-.47,.4-.75-.35-.68-.8-1.32-1.41-2.29Zm-8.61,7.32c0,1.1-.37,2.26,.61,3.66,.1-1.57,.03-2.65-.61-3.66Zm-112.22-307.11c.5-1.25,.72-2.48-.31-3.58-.23,1.21-.2,2.41,.31,3.58ZM203.77,86.32c-.3,.78-1.23,1.39-.54,2.45,.05,.07,.37,.09,.41,.03,.53-.71,.79-1.49,.5-2.37-.01-.04-.14-.04-.37-.11Zm-39.56,9.58c.09,1.47,.25,1.92,.74,2.02,.12,.02,.34-.06,.39-.16,.39-.82-.22-1.27-.7-1.76-.04-.04-.14-.04-.43-.1Zm164.4,390.32c.38-.03,.62-.25,.64-.57,.03-.66-.15-1.26-.94-1.33-.37-.03-.5,.34-.48,.65,.04,.55,.16,1.08,.78,1.25Zm-134.05-34.88c-.47,.03-.82,.22-.75,.71,.07,.57,.57,.72,1.05,.78,.43,.05,.89-.15,.88-.58-.02-.68-.64-.81-1.18-.91Zm146.47,98.59c-1-.19-1.73,.28-2.68,1.08,1.36,.2,2.02-.44,2.68-1.08Zm-260.38,41.39c.44,.54,.96,.82,1.68,.43,.09-.05,.16-.31,.11-.39-.41-.61-.98-.61-1.59-.35-.05,.02-.08,.12-.19,.3Zm218.91-46.98c-.61-1.22-.95-1.97-2.04-2.56,.53,1,.84,1.75,2.04,2.56ZM122.39,210.09q-.87,1.32-.71,2.4c.34-.76,.82-1.38,.71-2.4Zm87.54,19.86c-.04-.44-.24-.81-.68-.81-.51,0-.59,.43-.54,.84,.05,.4,.21,.82,.66,.82,.51,0,.52-.47,.56-.85Zm-62.12-126.62c-.35,.06-.57,.28-.58,.62-.02,.47,.23,.75,.71,.67,.35-.06,.5-.35,.46-.7-.04-.34-.23-.56-.59-.59Zm205.32,446.76c.32,1.19,.97,1.38,1.92,1.45-.4-.87-.83-1.34-1.92-1.45ZM16.77,498.14c.28,0,.45-.15,.46-.41,.02-.35-.16-.62-.51-.68-.27-.05-.45,.14-.45,.41,0,.34,.16,.59,.5,.69Zm320.95-14.84c-.71,.17-.87,.66-.86,1.23,0,.24,.14,.43,.46,.43,.34-.48,.55-1.01,.4-1.67Zm24.88,129.05c-.64-.51-1.16-.66-2.01-.16,.75,.44,1.26,.67,2.01,.16Zm-122.02-50.27c.45-.15,.85-.43,.87-.94,.02-.4-.37-.45-.69-.37-.47,.13-.88,.37-.73,.97,.06,.24,.28,.34,.55,.34ZM78.31,330.04c0,.52,.34,.64,.59,.78,.33,.18,.77,.42,.96-.12,.13-.36-.24-.54-.54-.67-.29-.12-.59-.24-1.02,0Zm80.99-186.35c-.05-.25-.19-.42-.45-.44-.25-.01-.45,.13-.46,.38-.02,.35,.19,.56,.54,.53,.25-.02,.37-.22,.37-.47Zm-27.72-36.78c-.35,.1-.51,.35-.4,.68,.06,.18,.28,.41,.45,.44,.37,.05,.54-.23,.53-.57-.01-.34-.21-.55-.58-.55Zm267.5,491.18c-.41,.42-.31,.73-.14,.99,.18,.28,.22,.82,.81,.54,0-.57-.11-1.08-.67-1.54Zm4.69,4.26c.02,.27,.14,.5,.43,.4,.31-.11,.47-.42,.48-.76,0-.27-.17-.48-.45-.4-.35,.1-.41,.44-.45,.76ZM161.56,170.68c-.27-.05-.53,.04-.41,.3,.11,.25,.39,.44,.65,.59,.19,.11,.53,.09,.53-.19,0-.46-.44-.55-.76-.7Zm82.66,391.3c-.06-.39-.21-.75-.73-.69-.26,.03-.39,.27-.35,.52,.07,.41,.23,.8,.73,.75,.25-.03,.33-.29,.35-.58Zm44.14,50.05c.28-.02,.47-.18,.42-.44-.04-.19-.22-.41-.4-.49-.22-.1-.46,.04-.5,.3-.07,.36,.14,.56,.49,.63Zm93.96-23.47c-.39-.02-.58,.2-.62,.54-.01,.13,.09,.35,.2,.39,.36,.15,.62-.05,.72-.39,.07-.24-.04-.45-.3-.54Zm-97.31-31.34c.73-.32,.8-.85,.91-1.6-.85,.43-1.18,.85-.91,1.6ZM148.93,16.32c-.42-.43-.6-1.05-1.34-.88,.38,.35,.69,.78,1.34,.88Zm-3.15,.82c-.09-.66-.49-.92-1.1-.87-.08,0-.23,.27-.19,.33,.29,.48,.65,.83,1.29,.54ZM404.61,598c.26-.03,.42-.2,.46-.44,.05-.34-.08-.63-.41-.71-.36-.08-.57,.16-.57,.5,0,.34,.19,.56,.53,.65Zm-56.68,42.21c.64,.95,1.18,1.23,2.03,1.14-.45-.67-.99-.92-2.03-1.14ZM37.39,471.08c-.11,.08-.3,.14-.32,.24-.06,.25,.11,.44,.35,.48,.1,.02,.3-.12,.32-.22,.06-.25-.11-.41-.34-.49Zm281.61-4.11c.12-.36-.1-.47-.34-.52-.24-.05-.51,0-.59,.24-.09,.26,.12,.43,.37,.49,.25,.06,.46-.02,.57-.21Zm-37.32,91.16c-.07-.26-.25-.4-.5-.41-.27-.01-.47,.13-.46,.41,.02,.36,.23,.59,.6,.52,.24-.05,.37-.26,.36-.52ZM158.66,110.73c-.06-.12-.1-.32-.2-.36-.26-.1-.44,.07-.47,.31-.02,.11,.09,.32,.19,.36,.26,.1,.41-.07,.48-.31Zm114.05,458.8c.01-.21,.02-.44,.03-.66,0-.21-.15-.33-.18-.25-.08,.2-.07,.44-.08,.66-.02,.21,.06,.3,.24,.25Zm34.28-15.29c-.18,0-.29,.12-.21,.28,.09,.19,.24,.38,.4,.52,.15,.13,.33,.05,.31-.13-.04-.3-.17-.57-.5-.67Zm-226.09-11.89c.07-.12,.2-.24,.19-.36-.02-.25-.19-.4-.43-.24-.08,.05-.12,.28-.08,.39,.04,.1,.21,.14,.32,.21Zm319.91,63.75c-.03-.13-.03-.35-.1-.38-.25-.11-.41,.07-.46,.29-.03,.12,.02,.34,.09,.37,.24,.1,.39-.06,.48-.29ZM157.17,12.74c-.13-.3-.41-.44-.71-.5-.08-.02-.3,.16-.29,.22,.06,.37,.38,.43,.68,.5,.19,.04,.3-.04,.32-.22Zm126.2,587.65c-.18,.02-.27,.14-.22,.32,.04,.14,.11,.35,.21,.37,.32,.08,.37-.18,.31-.4-.03-.11-.19-.19-.3-.29ZM139.88,111.25c-.1,.09-.26,.18-.27,.28,0,.11,.11,.3,.21,.32,.26,.05,.41-.12,.36-.37-.02-.1-.2-.16-.3-.24Zm120.49,439.52c.25-.09,.35-.29,.3-.52-.02-.1-.2-.26-.28-.24-.26,.05-.35,.28-.3,.51,.02,.1,.18,.17,.27,.25ZM174.53,67.14c-.35,0-.48,.18-.46,.42,.01,.13,.13,.31,.25,.35,.25,.09,.45-.06,.49-.32,.04-.25-.09-.42-.28-.45Zm222.05,537c.29,.07,.43-.09,.45-.33,0-.11-.1-.32-.19-.34-.24-.06-.43,.09-.44,.34,0,.11,.12,.23,.18,.33Zm-108.99,4.61c-.06-.13-.09-.32-.19-.38-.09-.05-.34,.03-.37,.11-.11,.23-.02,.46,.25,.51,.09,.01,.21-.16,.31-.24Zm106.31,.98c.02-.34-.13-.51-.4-.48-.12,.01-.27,.17-.31,.29-.09,.24,0,.47,.27,.52,.26,.05,.4-.15,.45-.33Zm2.59,.67c.25-.05,.47-.17,.48-.44,0-.29-.2-.43-.46-.36-.13,.03-.27,.18-.32,.31-.09,.25,.02,.44,.31,.49Zm-14.26,.36c-.09,.11-.24,.21-.25,.32-.01,.12,.1,.34,.18,.36,.28,.05,.4-.17,.36-.41-.02-.1-.19-.18-.29-.26ZM11.32,474.02c.14-.11,.34-.22,.46-.39,.14-.19,.13-.46-.19-.4-.18,.03-.33,.27-.46,.44-.11,.15-.04,.28,.2,.34Zm68.97,52.45c.03-.28-.11-.47-.38-.37-.18,.06-.36,.26-.45,.44-.09,.2-.02,.47,.23,.49,.34,.02,.5-.26,.59-.56Zm307.93,91.52c.32,.06,.47-.11,.53-.34,.06-.24-.03-.47-.27-.56-.28-.11-.42,.09-.47,.34-.05,.24,.02,.45,.21,.56Zm-176.12,20.73c-.39-.26-.61-.19-.56-.09,.09,.18,.29,.33,.48,.43,.08,.05,.25-.05,.37-.08-.16-.15-.32-.29-.29-.26Zm32.71-74.39c-.08-.23-.24-.37-.47-.28-.1,.04-.19,.23-.19,.35-.01,.23,.12,.43,.38,.4,.25-.03,.32-.24,.29-.47Zm-27.66,76.56c-.2,0-.33,.15-.22,.27,.15,.15,.38,.24,.6,.29,.12,.03,.27-.09,.41-.14-.16-.33-.48-.35-.78-.42Zm-119.53,7.11c-.11,.07-.21,.14-.32,.2,.09,.1,.17,.25,.28,.28,.21,.05,.45,.02,.39-.29-.02-.08-.23-.13-.35-.19Zm288.28-38.97c.31,.04,.45-.13,.48-.36,.02-.12-.05-.3-.15-.37-.21-.14-.4-.04-.48,.19-.08,.22-.03,.42,.15,.54Zm-137.77-36.7c-.11,.09-.28,.17-.3,.28-.02,.1,.1,.31,.2,.34,.26,.08,.44-.06,.4-.33-.02-.11-.2-.19-.3-.28Zm87.78-83.04c.11,.09,.21,.17,.32,.25,0,0,.14-.12,.13-.16-.04-.13-.09-.31-.19-.35-.16-.06-.27,.07-.26,.26Zm51.99,121.32c-.26,.12-.3,.34-.21,.56,.04,.08,.26,.17,.35,.13,.23-.09,.32-.32,.21-.54-.04-.09-.24-.11-.35-.15Zm-49.77-133.74c-.15,.04-.21,.15-.15,.31,.02,.06,.11,.16,.13,.15,.11-.05,.21-.13,.31-.2-.09-.09-.19-.18-.29-.27Zm-41.25,31.22c-.13-.14-.26-.14-.37,.02-.03,.05-.04,.15-.01,.2,.03,.05,.12,.1,.18,.09,.19-.02,.26-.14,.2-.3ZM173.66,6.95c-.1,.09-.2,.18-.3,.27,.1,.1,.19,.26,.3,.29,.07,.02,.19-.16,.29-.24-.1-.1-.2-.21-.3-.31Zm111.99,597.89c-.07-.12-.11-.29-.21-.34-.08-.04-.31,.05-.33,.12-.08,.23,.04,.42,.28,.46,.07,.01,.17-.15,.26-.24Zm107.36,8.38c-.11-.07-.24-.22-.32-.2-.1,.03-.23,.2-.23,.31,0,.25,.15,.41,.41,.26,.09-.05,.1-.24,.15-.36Zm-49.57-8.08c-.1-.1-.19-.27-.29-.29-.11-.01-.31,.12-.34,.22-.07,.28,.13,.42,.38,.37,.1-.02,.17-.2,.25-.3Zm43.07,14.61c-.08-.15-.12-.33-.22-.38-.07-.04-.31,.06-.34,.14-.08,.23,.04,.43,.28,.47,.08,.01,.19-.15,.28-.23Zm-299.02-.05c-.13,.04-.34,.05-.38,.13-.04,.1,.02,.33,.11,.39,.21,.13,.46,.12,.52-.18,.02-.09-.16-.22-.25-.34Zm174.88-82.2c.08-.1,.21-.21,.21-.32,0-.18-.15-.24-.31-.14-.06,.03-.11,.1-.13,.17-.04,.18,.04,.28,.22,.29Zm9.65,.63c-.16-.04-.29-.09-.43-.11-.19-.03-.34,.08-.27,.2,.06,.09,.26,.12,.39,.11,.1,0,.2-.12,.31-.2Zm121.6,26.68c-.11-.07-.21-.14-.32-.21-.05,.12-.16,.26-.13,.35,.03,.1,.2,.15,.31,.22,.05-.12,.09-.24,.14-.36Zm1.47,41.52c-.1-.07-.23-.21-.31-.19-.11,.03-.26,.18-.26,.28,0,.26,.18,.39,.42,.27,.09-.04,.1-.24,.15-.36Zm3.56,1.25c-.07,.12-.15,.25-.22,.37,.13,.06,.29,.19,.38,.15,.11-.05,.16-.23,.24-.36-.13-.05-.26-.11-.39-.16Zm-303.01,37.3c-.13-.04-.25-.09-.38-.13,0,.12-.03,.25-.01,.37,0,.03,.13,.06,.19,.05,.18-.01,.25-.12,.2-.29Zm6.12,.82c-.18-.14-.27-.28-.36-.28-.2,0-.4,.09-.6,.13,.08,.09,.16,.24,.24,.24,.2,.01,.4-.05,.72-.1Zm131.58-70.19c-.13-.3-.31-.55-.68-.45-.08,.02-.18,.27-.15,.38,.08,.32,.31,.54,.66,.46,.08-.02,.11-.25,.16-.39Z"/>
      <path class="cls-2" d="M122.72,85.42c-1.02-1.07-1.27-2.29-.81-3.66,.13-.37,.35-.74,.82-.7,.45,.04,.64,.39,.75,.78,.24,.82-.07,1.54-.39,2.26-.18,.41,.02,.93-.38,1.32Z"/>
      <path class="cls-2" d="M117.22,71.89c-.57-.48-.36-1.16-.43-1.76-.07-.57-.02-1.19,.69-1.31,.69-.12,1.24,.27,1.61,.82,.45,.68-.12,1.01-.57,1.32-.43,.3-.58,.99-1.29,.94Z"/>
      <path class="cls-2" d="M45.07,499.5c-.06,.31-.23,.52-.49,.45-.44-.12-.58-.51-.58-.93,0-.27,.17-.48,.45-.39,.42,.13,.6,.48,.62,.87Z"/>
      <path class="cls-2" d="M42.61,486.93c.02,.26-.08,.48-.33,.52-.38,.06-.56-.2-.56-.54,0-.26,.16-.45,.43-.43,.25,.02,.4,.2,.46,.45Z"/>
      <path class="cls-2" d="M46.67,503.47c-.02,.27-.14,.47-.43,.38-.33-.1-.48-.4-.53-.71-.04-.28,.15-.45,.43-.37,.32,.1,.49,.36,.54,.69Z"/>
      <path class="cls-2" d="M300.31,471.88c-.54,1.43-.16,2.59-.18,3.76-.01,.83,.12,1.98-1.18,1.86-1.11-.1-.91-1.06-.79-1.86,.11-.7,.13-1.42,.25-2.11,.14-.82,.52-1.47,1.9-1.64Z"/>
      <path class="cls-2" d="M292.58,487.73c-.42-1.36-.59-2.72,.49-4.4,.27,1.79-.15,3.09-.49,4.4Z"/>
      <path class="cls-2" d="M298.37,479.41c-.01,.63-.43,.95-.99,1.1-.34,.1-.65-.06-.71-.41-.12-.63,.21-1.05,.8-1.22,.41-.11,.75,.07,.9,.53Z"/>
      <path class="cls-2" d="M300.61,465.82c.19,0,.28,.11,.26,.29-.01,.07-.07,.14-.13,.18-.17,.12-.33,.07-.33-.13,0-.11,.13-.23,.21-.34Z"/>
      <path class="cls-2" d="M134.84,70.19c2.35-2.57,5.31-4.03,8.74-5.55-1.92-.98-3.63-.66-5.21-.94-.7-.13-1.46,.02-2.09-.41-.46-.32-.99-.71-.68-1.35,.3-.6,.79-.19,1.24-.08,1.23,.3,1.39,.17,1.11-1.09-.14-.6-.31-1.09,.32-1.43,.6-.32,1.38-.44,1.79,.09,1.03,1.34,2.18,.82,3.55,.78,2.15-.06,4.28-.4,6.43-.33,1.08,.03,1.97,.42,2.9,.95,1.82,1.04,1.82,1.13,2.4,3.11,.31,1.09,.56,2.16,.61,3.26,.07,1.37-.24,1.65-1.61,1.5-.7-.08-1.18,.11-1.75,.5-2.69,1.86-5.62,1.31-8.51,.68-.81-.18-1.2-.96-1.64-1.65-.57-.9-1.28-.95-1.52-.06-.32,1.21-1.05,1.37-2.05,1.55-.93,.17-1.8,.62-2.71,.92-.37,.12-.78,.19-1.33-.43Zm14.48-1.57c-.07-.34-.27-.56-.62-.52-.35,.04-.54,.29-.48,.65,.06,.33,.29,.55,.63,.53,.38-.02,.49-.3,.47-.65Z"/>
      <path class="cls-2" d="M159.28,57.16c1.64,1.67,1.63,4.82,0,6.06-.39,.29-.85,.52-1.32,.26-.59-.34-.3-.81-.04-1.2,.65-.97,.7-2.07,.78-3.18,.05-.67-.11-1.43,.57-1.94Z"/>
      <path class="cls-2" d="M152.48,71.38q-1.08,1.54-5.45,1.33c1.59-1.47,3.5-1.12,5.45-1.33Z"/>
      <path class="cls-2" d="M152.41,143c-.58-.25-1.17-.48-1.74-.77-.21-.11-.33-.41-.14-.6,.14-.14,.44-.23,.63-.19,.86,.18,.98,.95,1.19,1.63,0,0,.06-.06,.06-.06Z"/>
      <path class="cls-2" d="M148.64,140.43c-.07,.08-.15,.25-.24,.25-.24,0-.42-.15-.43-.39,0-.09,.16-.27,.24-.27,.23,0,.41,.13,.43,.41Z"/>
      <path class="cls-2" d="M145.61,141.75c.12,.08,.33,.13,.35,.23,.06,.3-.17,.37-.4,.3-.11-.03-.18-.2-.27-.31,.11-.07,.21-.15,.32-.22Z"/>
      <path class="cls-2" d="M147.51,142.97c.16-.05,.27,.01,.3,.19,0,.06-.06,.12-.09,.18-.1-.06-.21-.12-.3-.2-.01,0,.06-.12,.09-.18Z"/>
      <path class="cls-2" d="M208.03,218.13c.03-1.58,1.78-2.85,3.25-2.27,.55,.22,1.02,.27,1.6,.23,1.41-.1,1.59,.21,.98,1.38-.71,1.35-1.85,2.19-3.26,2.64-1.71,.55-2.6-.18-2.57-1.98Z"/>
      <path class="cls-2" d="M221.81,209.18c.65,.55,.52,1.11,.46,1.64-.05,.39-.17,.81-.69,.69-.32-.07-.53-.35-.54-.68-.02-.63,.08-1.23,.77-1.65Z"/>
      <path class="cls-2" d="M248.98,222.87c.04-1.63,.37-1.94,1.94-1.87,1.59,.07,2.82,1.13,2.72,2.36-.08,1.11-1.17,1.89-2.61,1.87-1.71-.03-2.1-.47-2.05-2.36Z"/>
      <path class="cls-2" d="M341.83,556.89c.36,.03,.65,.18,.65,.53,0,.5-.39,.59-.79,.59-.32,0-.67-.11-.65-.49,.02-.46,.41-.58,.79-.63Z"/>
      <path class="cls-2" d="M391.76,620.1c-.02,.3-.02,.59-.06,.89-.02,.13-.11,.36-.17,.36-.34,0-.29-.27-.21-.46,.12-.27,.29-.53,.43-.79,0,0,0,0,0,0Z"/>
    </g>
    <image width="1752" height="2932" transform="translate(5.8) scale(.24)" xlink:href="../Layer 21.png"/>
  </g>
</svg>